<?xml version="1.0" standalone="no"?>
<!DOCTYPE svg PUBLIC "-//W3C//DTD SVG 1.1//EN" "http://www.w3.org/Graphics/SVG/1.1/DTD/svg11.dtd" >
<svg xmlns="http://www.w3.org/2000/svg" xmlns:xlink="http://www.w3.org/1999/xlink" version="1.1">
<metadata>
Created by FontForge 20190801 at Mon Oct 10 17:37:08 2005
 By www-data
(c) Copyright 2005 by Tong Duc Thinh. All Rights Reserved
</metadata>
<defs>
<font id="SFUBodoniBoldCondensed" horiz-adv-x="389" >
  <font-face 
    font-family="SFUBodoniBoldCondensed"
    font-weight="400"
    font-stretch="normal"
    units-per-em="1000"
    panose-1="0 0 4 0 0 0 0 0 0 0"
    ascent="800"
    descent="-200"
    x-height="375"
    cap-height="648"
    bbox="-106 -273 1000 1114"
    underline-thickness="50"
    underline-position="-125"
    unicode-range="U+0020-F002"
  />
<missing-glyph horiz-adv-x="500" 
d="M63 0v753h375v-753h-375zM125 63h250v628h-250v-628z" />
    <glyph glyph-name=".notdef" horiz-adv-x="500" 
d="M63 0v753h375v-753h-375zM125 63h250v628h-250v-628z" />
    <glyph glyph-name=".null" horiz-adv-x="0" 
 />
    <glyph glyph-name="nonmarkingreturn" horiz-adv-x="195" 
 />
    <glyph glyph-name="space" unicode=" " horiz-adv-x="195" 
 />
    <glyph glyph-name="exclam" unicode="!" horiz-adv-x="222" 
d="M122 205v0h-23q0 103 -5 136q-9 60 -29 159q-15 74 -15 92q0 26 17.5 41t43.5 15t43.5 -15t17.5 -41q0 -18 -15 -92q-20 -99 -29 -159q-4 -27 -6 -136zM179 58q0 -28 -20 -48t-48 -20t-48 20t-20 48t20 48t48 20t48 -20t20 -48z" />
    <glyph glyph-name="quotedbl" unicode="&#x22;" horiz-adv-x="444" 
d="M158 373v0h-43q-22 195 -22 223q0 62 43 62q44 0 44 -62q0 -28 -22 -223zM330 373v0h-43q-22 195 -22 223q0 62 43 62q44 0 44 -62q0 -28 -22 -223z" />
    <glyph glyph-name="numbersign" unicode="#" 
d="M386 251v-69h-84l-25 -182h-74l26 182h-96l-24 -182h-74l25 182h-83v69h93l16 114h-82v69h92l25 183h73l-25 -183h95l25 183h74l-26 -183h75v-69h-84l-16 -114h74zM253 365h-94l-16 -115h95z" />
    <glyph glyph-name="dollar" unicode="$" 
d="M174 21v250q-74 30 -107 71q-38 46 -38 121q0 58 43 103.5t102 52.5v74h37v-74q63 -4 105 -37t42 -81q0 -64 -58 -64q-20 0 -34.5 14t-14.5 34q0 29 14 43q8 7 27 13q14 5 14 12q0 14 -25 27q-28 15 -70 18v-208q80 -38 114 -79q42 -50 42 -130q0 -73 -42 -123
q-43 -53 -114 -58v-76h-37v76q-79 3 -122 50q-32 35 -32 75q0 75 58 75q54 0 54 -53q0 -24 -17 -40q-10 -7 -33 -17q-17 -8 -17 -14q0 -15 28 -33q34 -22 81 -22zM174 400v198q-97 -21 -97 -100q0 -56 97 -98zM211 258v-237q48 4 77 37t29 89q0 65 -106 111z" />
    <glyph glyph-name="percent" unicode="%" horiz-adv-x="667" 
d="M451 627h42l-297 -638h-42l272 581l-2 2q-51 -25 -111 -23q0 -1 1 -10v-16q0 -73 -50 -150q-55 -84 -120 -84q-107 0 -107 106q0 68 52 139q61 83 147 83q36 0 62 -34q11 -11 36 -11q32 0 64 14q36 15 53 41zM158 316q50 0 94 74q41 69 41 132q0 18 -4 31q-26 8 -59 36
q-39 -25 -73.5 -100.5t-34.5 -124.5q0 -48 36 -48zM335 102q0 77 57 152q61 79 136 79q82 0 82 -104q0 -75 -49 -149q-54 -80 -120 -80q-46 0 -76 28t-30 74zM420 83q0 -55 39 -55q26 0 55 29q24 23 39 51q35 66 35 126q0 71 -43 71q-40 0 -85 -92q-40 -83 -40 -130z" />
    <glyph glyph-name="ampersand" unicode="&#x26;" horiz-adv-x="611" 
d="M351 74l-147 272q-41 -30 -51 -44q-16 -20 -16 -55q0 -42 42 -119q47 -88 94 -88q55 0 78 34zM247 514l52 -91q29 27 29 98q0 65 -12 89t-45 24q-20 0 -33.5 -13.5t-13.5 -34.5q0 -32 23 -72zM389 0l-24 51q-69 -64 -160 -64q-83 0 -130 56q-41 49 -41 115q0 112 159 211
q-40 72 -42 76q-22 47 -22 83q0 127 146 130q74 1 116 -31q38 -30 38 -77q0 -77 -121 -145l132 -234q61 77 59 200h-59v24h141v-24h-53q-4 -134 -73 -228l66 -119h60v-24h-192z" />
    <glyph glyph-name="quotesingle" unicode="'" horiz-adv-x="222" 
d="M133 373v0h-43q-22 195 -22 223q0 62 43 62q44 0 44 -62q0 -28 -22 -223z" />
    <glyph glyph-name="parenleft" unicode="(" horiz-adv-x="278" 
d="M118 217q0 -107 7 -164q12 -91 46.5 -156t79.5 -100v-23q-69 49 -112 102q-121 149 -121 341t121 341q43 53 112 102v-23q-45 -35 -79.5 -100t-46.5 -156q-7 -57 -7 -164z" />
    <glyph glyph-name="parenright" unicode=")" horiz-adv-x="278" 
d="M160 217q0 107 -7 164q-12 91 -46.5 156t-79.5 100v23q69 -49 112 -102q121 -149 121 -341t-121 -341q-43 -53 -112 -102v23q45 35 79.5 100t46.5 156q7 57 7 164z" />
    <glyph glyph-name="asterisk" unicode="*" 
d="M196 307q-39 0 -39 35q0 6 16 55t16 72q-24 -13 -63 -58q-33 -38 -48 -38q-40 0 -40 45q0 26 50 37q75 16 94 27q-20 11 -95 27q-50 10 -50 39q0 15 11 28t29 13q17 0 48 -34q41 -46 64 -61q-1 24 -17 73t-16 55q0 35 39 35q38 0 38 -35q0 -6 -16 -55t-15 -73
q23 15 64 61q31 34 48 34q18 0 29 -13t11 -28q0 -29 -50 -39q-75 -16 -95 -27q19 -11 94 -27q50 -11 50 -37q0 -45 -40 -45q-15 0 -48 38q-39 45 -63 58q0 -23 16 -72t16 -55q0 -35 -38 -35z" />
    <glyph glyph-name="plus" unicode="+" horiz-adv-x="600" 
d="M252 301v205h96v-205h204v-96h-204v-205h-96v205h-204v96h204z" />
    <glyph glyph-name="comma" unicode="," horiz-adv-x="195" 
d="M68 -140l-15 16q44 45 60 69q26 38 23 69q-19 -22 -55 -22q-25 0 -40 18t-15 40q0 36 20 55.5t49 19.5q35 0 55 -26t20 -63q0 -89 -102 -176z" />
    <glyph glyph-name="hyphen" unicode="-" horiz-adv-x="333" 
d="M300 146h-266v88h266v-88z" />
    <glyph glyph-name="hyphen" unicode="&#x2010;" horiz-adv-x="333" 
d="M300 146h-266v88h266v-88z" />
    <glyph glyph-name="period" unicode="." horiz-adv-x="195" 
d="M165 57q0 -28 -20 -48t-48 -20t-48 20t-20 48t20 48t48 20t48 -20t20 -48z" />
    <glyph glyph-name="slash" unicode="/" horiz-adv-x="278" 
d="M205 658h94l-228 -671h-92z" />
    <glyph glyph-name="zero" unicode="0" 
d="M240 515q0 88 -45 88q-46 0 -46 -88v-419q0 -85 46 -85q45 0 45 85v419zM195 -10q-87 0 -134 126q-34 91 -35 192q-1 111 38 203q48 113 131 113t131 -113q39 -93 38 -204q-1 -101 -35 -192q-47 -125 -134 -125z" />
    <glyph glyph-name="one" unicode="1" 
d="M359 24v-24h-324v24h106v565h-102v24q76 5 223 11v-600h97z" />
    <glyph glyph-name="two" unicode="2" 
d="M346 0h-334v52q132 147 179 244q37 77 37 165q0 51 -19 84q-24 42 -71 42q-41 0 -68 -31q-20 -24 -20 -45q0 -18 13 -18l10 5t30 5q14 0 28 -12q17 -16 17 -41q0 -29 -16.5 -44t-37.5 -15q-38 0 -58 36q-14 26 -14 51q0 67 47 108q45 38 117 38q67 0 117.5 -44t50.5 -110
q0 -51 -25 -95q-21 -34 -79 -96l-171 -181h194q37 0 47.5 14t12.5 70h21z" />
    <glyph glyph-name="three" unicode="3" 
d="M356 169q0 -88 -59 -135q-55 -44 -145 -44q-61 0 -100 29q-43 31 -43 88q0 67 63 67q16 0 32 -12q21 -15 21 -43q0 -30 -29 -49t-29 -24q0 -14 27 -24q21 -8 38 -8q60 0 81 53q12 31 12 97q0 76 -12 106q-20 51 -81 51q-6 0 -19 -2.5t-19 -2.5q-18 0 -18 16q0 15 24 15
q4 0 12 -1t11 -1q59 0 79 51q12 29 12 87t-10 80q-15 37 -64 37q-12 0 -27 -6q-19 -8 -19 -18q0 -3 19 -22.5t19 -41.5q0 -25 -17 -38.5t-40 -13.5q-20 0 -35 18.5t-15 42.5q0 42 39 72.5t104 30.5q60 0 108 -32q59 -39 59 -107q0 -109 -153 -149v-4q73 -10 119 -47
q55 -43 55 -116z" />
    <glyph glyph-name="four" unicode="4" 
d="M292 24h58v-24h-230v24h61v142h-165v35q79 190 204 423h72v-434h47v66h20v-155h-20v65h-47v-142zM36 190h145v307h-2q-56 -109 -76 -149q-41 -87 -67 -158z" />
    <glyph glyph-name="five" unicode="5" 
d="M197 515h-110l-11 -162q44 15 96 15q79 0 135 -53t56 -131q0 -81 -52 -135q-58 -59 -160 -59q-55 0 -94 30q-43 33 -43 86q0 65 61 65q26 0 40.5 -16.5t14.5 -36.5q0 -34 -26.5 -50.5t-26.5 -23.5q0 -13 18 -21.5t42 -8.5q97 0 97 162q0 164 -112 164q-37 0 -70 -15
l13 239q2 37 20 46q11 6 51 6q14 0 146 2q27 0 37 30h22q-25 -97 -45 -115t-99 -18z" />
    <glyph glyph-name="six" unicode="6" 
d="M329 624v-21q-85 -23 -135 -92q-43 -59 -47 -131q28 18 56 18q70 0 113 -63q38 -55 38 -129q0 -88 -42 -148q-49 -68 -133 -68t-128 79q-35 64 -35 156q0 158 78 263q83 113 235 136zM230 109v171q0 45 -5 63q-9 32 -37 32q-51 0 -51 -90v-173q0 -57 11 -79t35 -22
q23 0 33 16q14 22 14 82z" />
    <glyph glyph-name="seven" unicode="7" 
d="M373 617v-32q-32 -51 -75 -161q-58 -146 -58 -231q0 -26 13.5 -72.5t13.5 -64.5q0 -66 -69 -66q-64 0 -64 72q0 49 44 147l137 305h-219q-29 0 -49 -72h-22l44 175h304z" />
    <glyph glyph-name="eight" unicode="8" 
d="M235 410v131q0 62 -40 62t-40 -62v-131q0 -71 40 -71t40 71zM195 624q72 0 119 -47q40 -42 40 -92q0 -117 -135 -159v-2q146 -36 146 -175q0 -64 -41 -108q-46 -51 -129 -51t-129 51q-41 44 -41 108q0 139 146 175v2q-135 42 -135 159q0 50 41 92q46 47 118 47zM241 245
q0 64 -46 64t-46 -64v-166q0 -39 10.5 -53.5t35.5 -14.5t35.5 14.5t10.5 53.5v166z" />
    <glyph glyph-name="nine" unicode="9" 
d="M57 -10v21q85 23 135 92q43 59 47 131q-28 -18 -56 -18q-70 0 -113 63q-38 55 -38 129q0 88 43 148q48 68 132 68t128 -79q35 -64 35 -156q0 -158 -78 -263q-83 -113 -235 -136zM156 505v-171q0 -45 5 -63q9 -32 37 -32q51 0 51 90v173q0 57 -11 79t-35 22q-23 0 -33 -16
q-14 -22 -14 -82z" />
    <glyph glyph-name="colon" unicode=":" horiz-adv-x="195" 
d="M165 310q0 -28 -20 -48t-48 -20t-48 20t-20 48t20 48t48 20t48 -20t20 -48zM165 57q0 -28 -20 -48t-48 -20t-48 20t-20 48t20 48t48 20t48 -20t20 -48z" />
    <glyph glyph-name="semicolon" unicode=";" horiz-adv-x="195" 
d="M68 -140l-15 16q44 45 60 69q26 38 23 69q-19 -22 -55 -22q-25 0 -40 18t-15 40q0 36 20 55.5t49 19.5q35 0 55 -26t20 -63q0 -89 -102 -176zM167 310q0 -28 -20 -48t-48 -20t-48 20t-20 48t20 48t48 20t48 -20t20 -48z" />
    <glyph glyph-name="less" unicode="&#x3c;" horiz-adv-x="600" 
d="M554 87v-95l-508 221v80l508 221v-95l-383 -166z" />
    <glyph glyph-name="equal" unicode="=" horiz-adv-x="600" 
d="M552 405v-96h-504v96h504zM552 197v-96h-504v96h504z" />
    <glyph glyph-name="greater" unicode="&#x3e;" horiz-adv-x="600" 
d="M46 87l383 166l-383 166v95l508 -221v-80l-508 -221v95z" />
    <glyph glyph-name="question" unicode="?" horiz-adv-x="333" 
d="M138 197h-20q-8 56 -8 85q0 68 27 105q42 46 85 91q30 32 30 67q0 37 -25 60t-63 23q-35 0 -58.5 -13t-23.5 -28q0 -7 16 -7q54 0 54 -56q0 -16 -17 -31t-39 -15q-27 0 -43.5 18t-16.5 42q0 52 39 82q35 28 88 28q65 0 106 -45.5t41 -108.5q0 -102 -77 -162
q-55 -43 -71 -59q-26 -27 -26 -51q0 -9 2 -25zM206 58q0 -28 -20 -48t-48 -20q-29 0 -49 20t-20 48t20.5 48t48.5 20t48 -20t20 -48z" />
    <glyph glyph-name="at" unicode="@" horiz-adv-x="800" 
d="M499 383q0 63 -38 63q-37 0 -75 -48q-42 -54 -42 -124q0 -38 13.5 -59.5t34.5 -21.5q36 0 65 46q33 52 42 144zM520 450l9 34h70l-57 -237q-2 -9 -2 -21q0 -45 31 -45q40 0 74 64q31 61 31 126q0 88 -69 156q-75 75 -190 75q-101 0 -171 -71q-81 -84 -81 -234
q0 -104 77.5 -178t183.5 -74q98 0 194 47l9 -47q-110 -58 -202 -58q-174 0 -278 111q-87 94 -87 210q0 153 106 253q102 97 249 97q136 0 228 -81.5t92 -204.5q0 -84 -47 -153q-53 -79 -134 -79q-42 0 -68 30q-20 22 -20 40h-2q-7 -17 -37 -39q-37 -28 -74 -31q-35 0 -59 23
q-34 31 -34 97q0 75 46 149q57 90 145 90q30 0 46 -15q7 -7 21 -34z" />
    <glyph glyph-name="A" unicode="A" horiz-adv-x="500" 
d="M258 221l-56 208h-2l-57 -208h115zM444 24h37v-24h-217v24h47l-46 170h-130l-45 -170h60v-24h-136v24h47l174 624h39z" />
    <glyph glyph-name="B" unicode="B" horiz-adv-x="500" 
d="M12 24h44v600h-44v24h257q78 0 127 -40t49 -113q0 -75 -59 -113q-40 -25 -130 -41v-2q212 -31 212 -170q0 -73 -48 -117q-56 -52 -169 -52h-239v24zM190 324v-300h25q67 0 89 38q18 30 18 110t-22 112q-27 40 -101 40h-9zM190 624v-277h15q61 0 84 44q17 31 17 97
q0 87 -30 116q-20 20 -72 20h-14z" />
    <glyph glyph-name="C" unicode="C" horiz-adv-x="444" 
d="M401 -6l-29 30q-55 -37 -115 -37q-88 0 -153 73q-81 91 -81 262q0 141 70 238.5t170 97.5q64 0 112 -53l24 43h18v-182h-20q-15 74 -37 111q-35 57 -95 57q-88 0 -88 -169v-290q0 -164 100 -164q47 0 82 52q33 49 42 119h21v-188h-21z" />
    <glyph glyph-name="D" unicode="D" horiz-adv-x="500" 
d="M198 624v-600h11q85 0 108 70q15 48 15 228q0 183 -17 235q-22 67 -100 67h-17zM64 624h-44v24h194q264 0 264 -337q0 -145 -67.5 -228t-181.5 -83h-209v24h44v600z" />
    <glyph glyph-name="E" unicode="E" horiz-adv-x="444" 
d="M427 211l-9 -211h-406v24h44v600h-44v24h394l6 -165h-23q-24 84 -58 114q-32 27 -96 27h-45v-273q53 0 74 30q17 25 19 85h25v-269h-22q-9 72 -24 96q-20 32 -72 32v-301h47q87 0 126 59q28 41 38 128h26z" />
    <glyph glyph-name="F" unicode="F" horiz-adv-x="444" 
d="M23 24h49v599h-49v25h406l6 -185h-23q-24 88 -47 116q-36 45 -119 45h-40v-273q53 -1 74 29q17 25 19 85h25v-269h-22q-9 72 -24 96q-20 32 -72 33v-301h58v-24h-241v24z" />
    <glyph glyph-name="G" unicode="G" horiz-adv-x="500" 
d="M440 462h-27q-38 170 -135 170q-65 0 -87 -60q-20 -53 -20 -196v-202q0 -163 75 -163q42 0 59 30q14 26 14 92v124h-46v24h220v-24h-31v-30q0 -95 -40 -157q-54 -83 -169 -83q-127 0 -188 124q-42 84 -42 186q0 198 88 293q63 68 147 68q65 0 132 -53l23 40h27v-183z" />
    <glyph glyph-name="H" unicode="H" horiz-adv-x="556" 
d="M358 326h-160v-302h51v-24h-231v24h46v600h-46v24h231v-24h-51v-271h160v271h-51v24h231v-24h-46v-600h46v-24h-231v24h51v302z" />
    <glyph glyph-name="I" unicode="I" horiz-adv-x="278" 
d="M206 24h52v-24h-238v24h52v600h-52v24h238v-24h-52v-600z" />
    <glyph glyph-name="J" unicode="J" horiz-adv-x="333" 
d="M316 624h-44v-516q0 -84 -36 -134q-41 -54 -118 -54q-51 0 -79 28q-24 25 -24 59q0 23 17 41.5t44 18.5q24 0 40 -18t16 -37q0 -18 -10 -34q-12 -20 -33 -23q14 -9 29 -9q58 0 58 63q0 20 -19 76.5t-19 130.5v408h-52v24h230v-24z" />
    <glyph glyph-name="K" unicode="K" horiz-adv-x="556" 
d="M522 624h-66l-133 -203l205 -397h34v-24h-229v24h56l-154 312l188 288h-56v24h155v-24zM279 0h-236v24h49v600h-49v24h246v-24h-63v-600h53v-24z" />
    <glyph glyph-name="L" unicode="L" horiz-adv-x="444" 
d="M433 218l-6 -218h-401v24h46v600h-46v24h233v-24h-53v-600q56 0 75 3q41 6 69 28q41 33 59 163h24z" />
    <glyph glyph-name="M" unicode="M" horiz-adv-x="611" 
d="M139 24v-24h-125v24h44v600h-44v24h190l96 -401h2l103 401h185v-24h-42v-600h42v-24h-220v24h51v581h-2l-154 -605h-29l-146 618h-2v-594h51z" />
    <glyph glyph-name="N" unicode="N" horiz-adv-x="500" 
d="M153 24v-24h-141v24h53v600h-53v24h182l198 -388h2v364h-54v24h135v-24h-51v-635h-37l-290 567h-2v-532h58z" />
    <glyph glyph-name="O" unicode="O" horiz-adv-x="556" 
d="M371 165v289q0 111 -25 150q-19 30 -68 30t-68 -30q-25 -39 -25 -150v-289q0 -154 93 -154t93 154zM278 658q103 0 174 -94q73 -97 73 -242q0 -144 -72 -239.5t-175 -95.5t-175 95.5t-72 239.5q0 145 73 242q71 94 174 94z" />
    <glyph glyph-name="P" unicode="P" horiz-adv-x="500" 
d="M206 624v-295h19q55 0 82 32q32 37 32 125q0 70 -17 99q-23 39 -89 39h-27zM259 24v-24h-235v24h48v600h-48v24h244q97 0 156 -43t59 -120q0 -179 -238 -179h-39v-282h53z" />
    <glyph glyph-name="Q" unicode="Q" horiz-adv-x="556" 
d="M371 165v289q0 111 -25 150q-19 30 -68 30t-68 -30q-25 -39 -25 -150v-289q0 -154 93 -154t93 154zM472 -169v-23q-26 -2 -40 -2q-121 0 -175 36q-59 40 -59 137v26q-82 36 -128 133q-39 84 -39 184q0 145 73 242q71 94 174 94t174 -94q73 -97 73 -242q0 -121 -53 -212
q-52 -87 -134 -113v-73q0 -46 29.5 -68t104.5 -25z" />
    <glyph glyph-name="R" unicode="R" horiz-adv-x="500" 
d="M190 624v-261q80 -1 107 26t27 109q0 68 -23 97t-76 29h-35zM243 0h-227v24h40v600h-40v24h236q100 0 159 -38t59 -102q0 -146 -219 -160v-2q99 -24 142.5 -73.5t43.5 -142.5v-50q0 -55 35 -55q6 0 16 2l5 -22q-35 -11 -64 -11q-68 0 -102 41q-29 35 -29 93v62
q0 144 -108 148v-314h53v-24z" />
    <glyph glyph-name="S" unicode="S" 
d="M23 189h24q6 -66 40 -117q41 -61 102 -61q44 0 71.5 28t27.5 72q0 63 -69 115q-63 46 -127 92q-69 63 -69 155q0 90 44 139q41 46 112 46q53 0 114 -41l25 31h20v-170h-22q-35 156 -138 156q-95 0 -95 -90q0 -51 72 -99q119 -79 134 -94q72 -69 72 -172q0 -68 -39 -123
q-48 -69 -136 -69q-60 0 -113 45l-34 -32h-16v189z" />
    <glyph glyph-name="T" unicode="T" horiz-adv-x="500" 
d="M183 24v600h-18q-94 0 -117 -183h-27l7 207h444l7 -207h-27q-23 183 -117 183h-18v-600h68v-24h-270v24h68z" />
    <glyph glyph-name="U" unicode="U" horiz-adv-x="500" 
d="M250 624h-48v-493q0 -112 91 -112q115 0 115 152v453h-49v24h128v-24h-49v-445q0 -82 -25 -124q-40 -68 -151 -68q-103 0 -153 53q-41 42 -41 110v474h-46v24h228v-24z" />
    <glyph glyph-name="V" unicode="V" horiz-adv-x="500" 
d="M50 624h-38v24h217v-24h-47l109 -411h2l107 411h-57v24h132v-24h-44l-173 -644h-37z" />
    <glyph glyph-name="W" unicode="W" horiz-adv-x="722" 
d="M493 -20h-37l-79 279h-2l-96 -279h-38l-190 644h-32v24h544v-24h-36l-67 -221l61 -218h2l126 439h-37v24h95v-24h-27zM275 624h-96l133 -452h2l49 135zM497 624h-104l49 -177h2z" />
    <glyph glyph-name="X" unicode="X" horiz-adv-x="500" 
d="M160 24v-24h-144v24h49l125 272l-146 328h-30v24h206v-24h-38l88 -199l93 199h-55v24h141v-24h-53l-110 -235l161 -365h30v-24h-211v24h44l-106 235l-108 -235h64z" />
    <glyph glyph-name="Y" unicode="Y" horiz-adv-x="500" 
d="M318 24h59v-24h-250v24h57v266l-135 334h-35v24h211v-24h-42l113 -276l113 276h-46v24h116v-24h-38l-123 -303v-297z" />
    <glyph glyph-name="Z" unicode="Z" horiz-adv-x="444" 
d="M66 478h-24l4 170h371v-25l-269 -599h89q139 0 155 187h25l-7 -211h-398v32l268 592h-84q-103 0 -130 -146z" />
    <glyph glyph-name="bracketleft" unicode="[" horiz-adv-x="278" 
d="M250 -185v-25h-213v855h213v-25h-125v-805h125z" />
    <glyph glyph-name="backslash" unicode="\" horiz-adv-x="278" 
d="M-21 658h92l228 -671h-94z" />
    <glyph glyph-name="bracketright" unicode="]" horiz-adv-x="278" 
d="M153 620h-125v25h213v-855h-213v25h125v805z" />
    <glyph glyph-name="asciicircum" unicode="^" horiz-adv-x="600" 
d="M175 252h-95l177 365h86l177 -365h-96l-124 266z" />
    <glyph glyph-name="underscore" unicode="_" horiz-adv-x="500" 
d="M500 -125h-500v50h500v-50z" />
    <glyph glyph-name="grave" unicode="`" horiz-adv-x="222" 
d="M172 439h-46l-131 94q-32 23 -32 46q0 36 35 36q18 0 52 -38z" />
    <glyph glyph-name="a" unicode="a" 
d="M358 46l10 -13q-25 -42 -81 -42q-48 0 -64 50q-42 -50 -116 -50q-41 0 -66 22t-25 60q0 73 69 106q41 20 133 32v78q0 38 -6 51q-10 22 -43 22q-45 0 -45 -20q0 -2 10.5 -18.5t10.5 -31.5q0 -20 -15 -34t-30 -14q-54 0 -54 51q0 32 26 56q37 33 112 33q62 0 98 -23.5
t36 -66.5v-236q0 -24 14 -24q7 0 26 12zM119 109q0 -74 44 -74q36 0 46.5 29t8.5 126q-99 -2 -99 -81z" />
    <glyph glyph-name="b" unicode="b" horiz-adv-x="444" 
d="M19 0v21h46v608h-44v21q20 0 69 3q67 3 81 4v-331h2q40 58 96 58q64 0 106 -60q39 -56 39 -130q0 -79 -31 -134q-40 -69 -116 -69q-64 0 -98 56h-2v-53q-59 6 -148 6zM302 162v49q0 95 -12 125q-10 24 -39 24q-31 0 -54 -31q-27 -36 -27 -151q0 -163 85 -163q26 0 37 36
q10 33 10 111z" />
    <glyph glyph-name="c" unicode="c" horiz-adv-x="333" 
d="M291 111h26q-27 -120 -134 -120q-79 0 -125 64q-42 58 -42 140q0 70 47 127q52 62 126 62q54 0 88 -29q31 -27 31 -68q0 -25 -14 -42.5t-39 -17.5q-51 0 -51 48q0 29 22 42.5t22 19.5q0 12 -19 20t-36 8q-63 0 -63 -89q0 -17 -1 -46t-1 -42q0 -12 1 -36t1 -35
q0 -42 17 -69q19 -30 54 -30q72 0 90 93z" />
    <glyph glyph-name="d" unicode="d" horiz-adv-x="444" 
d="M377 21h44v-21q-44 0 -149 -6v54h-2q-26 -57 -95 -57q-74 0 -114 62q-33 52 -33 130q0 93 41 147t110 54q58 0 90 -58h2v303h-48v21q-17 0 154 7v-636zM271 144v62q0 154 -86 154q-44 0 -44 -106v-156q0 -83 46 -83q34 0 57 29q27 35 27 100z" />
    <glyph glyph-name="e" unicode="e" 
d="M354 217h-213v-92q0 -107 72 -107q102 0 121 100h24q-12 -59 -52 -93t-99 -34q-84 0 -134 58q-48 55 -48 140q0 78 48.5 136.5t125.5 58.5q68 0 111.5 -49.5t43.5 -117.5zM141 241h104v56q0 42 -17 57q-10 9 -35 9q-52 0 -52 -69v-53z" />
    <glyph glyph-name="f" unicode="f" horiz-adv-x="278" 
d="M236 21v-21h-220v21h56v333h-56v21h56q-3 148 33 217q36 66 114 66q38 0 64 -18q31 -21 31 -57q0 -21 -13.5 -36t-33.5 -15q-21 0 -34.5 13t-13.5 34q0 13 6.5 27t6.5 17q0 15 -17 15q-37 0 -37 -108v-155h70v-21h-70v-333h58z" />
    <glyph glyph-name="g" unicode="g" 
d="M255 -45h-135q-19 -33 -19 -58q0 -96 100 -96q52 0 92 31.5t40 76.5q0 25 -13 34q-16 12 -65 12zM129 242q0 -51 5 -66q10 -34 47 -34q36 0 44 50q1 8 1 80q0 58 -10 76q-9 15 -34 15q-35 0 -44 -22.5t-9 -98.5zM169 121h-30q-69 0 -69 -43q0 -33 58 -33q36 0 116 2
q121 3 121 -102q0 -68 -44 -116q-51 -56 -142 -56q-81 0 -120 38q-27 26 -27 55q0 33 17 54q15 16 56 39q-74 21 -74 97q0 32 26 55q23 21 54 27v2q-36 13 -57.5 44.5t-21.5 71.5q0 39 30 76q41 52 120 52q48 0 95 -32q21 45 57 45q41 0 41 -35q0 -30 -31 -30q-24 0 -34 21
q-13 -5 -22 -14q38 -32 38 -89q0 -53 -33 -87q-40 -42 -124 -42z" />
    <glyph glyph-name="h" unicode="h" horiz-adv-x="444" 
d="M58 629h-40v21q17 0 66 3q63 3 80 4v-337h2q37 64 111 64q54 0 82 -35q25 -31 25 -77v-251h37v-21h-178v21h35v270q0 52 -46 52q-27 0 -47 -31q-21 -34 -21 -91v-200h37v-21h-182v21h39v608z" />
    <glyph glyph-name="i" unicode="i" horiz-adv-x="222" 
d="M11 21h44v333h-41v21q91 0 147 7v-361h39v-21h-189v21zM165 560q0 -25 -17.5 -42t-41.5 -17q-25 0 -42 17t-17 42t17 42t42 17q24 0 41.5 -17t17.5 -42z" />
    <glyph glyph-name="j" unicode="j" horiz-adv-x="222" 
d="M74 354h-54v21q54 0 80 1q42 2 77 6v-363q0 -246 -145 -246q-32 0 -59 20.5t-27 51.5q0 55 52 55q44 0 44 -45q0 -9 -6 -24.5t-6 -20.5q0 -12 16 -12q36 0 35 61q0 24 -5 72t-5 72v351l3 2v-2zM181 560q0 -25 -17 -42t-42 -17t-42 17t-17 42t17 42t42 17t42 -17t17 -42z
" />
    <glyph glyph-name="k" unicode="k" horiz-adv-x="444" 
d="M170 21h37v-21h-189v21h46v608h-40v21q17 0 66 3q63 3 80 4v-636zM257 255l142 -234h28v-21h-180v21h37l-108 180l134 153h-61v21h141v-21h-49z" />
    <glyph glyph-name="l" unicode="l" horiz-adv-x="222" 
d="M57 629h-42v21q18 0 68 3q64 3 80 4v-636h42v-21h-187v21h39v608z" />
    <glyph glyph-name="m" unicode="m" horiz-adv-x="667" 
d="M606 21h39v-21h-180v21h35v270q0 52 -46 52q-27 0 -47 -31q-21 -34 -21 -91v-200h36v-21h-177v21h35v270q0 52 -46 52q-27 0 -47 -31q-21 -34 -21 -91v-200h37v-21h-185v21h42l1 333h-43v21q90 0 146 7v-68h2q14 31 45.5 50.5t67.5 19.5q70 0 107 -70q14 31 45.5 50.5
t67.5 19.5q54 0 82 -35q25 -31 25 -77v-251z" />
    <glyph glyph-name="n" unicode="n" horiz-adv-x="444" 
d="M164 21h37v-21h-182v21h39l1 333h-41v21q41 0 67 1q42 2 77 6v-69l2 1q14 31 45.5 50.5t67.5 19.5q54 0 82 -35q25 -31 25 -77v-251h37v-21h-178v21h35v270q0 52 -46 52q-27 0 -47 -31q-21 -34 -21 -91v-200z" />
    <glyph glyph-name="o" unicode="o" 
d="M194 -9q-83 0 -130 61q-43 55 -43 135q0 81 43 136q47 61 130 61t130 -61q43 -55 43 -136q0 -80 -43 -135q-47 -61 -130 -61zM136 282v-180q0 -49 13 -70.5t45 -21.5q38 0 51 29q7 17 7 62v181q0 83 -58 83t-58 -83z" />
    <glyph glyph-name="p" unicode="p" horiz-adv-x="444" 
d="M296 159v90q0 72 -16 96q-10 15 -36 15t-47.5 -25t-27.5 -67q-3 -20 -3 -83q0 -81 8.5 -104.5t27.5 -41.5q22 -21 44 -21q34 0 44 38q6 24 6 103zM220 -206v-21h-204v21h44v560h-44v21q91 0 147 7v-63h2q36 65 107 65q59 0 98 -55t39 -134q0 -90 -42.5 -147t-108.5 -57
q-28 0 -53 17t-37 43h-2v-257h54z" />
    <glyph glyph-name="q" unicode="q" horiz-adv-x="444" 
d="M425 -206v-21h-203v21h53v256h-2q-29 -59 -90 -59q-75 0 -118 74q-33 57 -33 120q0 78 34 134q39 65 104 65q70 0 107 -64h2v62q15 -2 146 -7v-21h-44v-560h44zM148 86q4 -67 47 -67q28 0 50 25q19 22 25 52q5 23 5 78q0 92 -10 124q-7 21 -27 41.5t-40 20.5
q-41 0 -51 -60q-2 -15 -2 -90q0 -70 3 -124z" />
    <glyph glyph-name="r" unicode="r" horiz-adv-x="333" 
d="M215 0h-199v21h42v333h-40v21q36 0 62 1q42 2 77 6v-57h2q31 59 85 59q29 0 50.5 -17.5t21.5 -43.5q0 -23 -12 -38q-14 -18 -37 -18q-48 0 -48 40q0 12 4.5 24.5t4.5 15.5q0 8 -10 8q-16 0 -34 -29q-20 -32 -20 -74v-231h51v-21z" />
    <glyph glyph-name="s" unicode="s" horiz-adv-x="278" 
d="M35 -9h-21v141h24q12 -120 94 -120q69 0 69 63q0 29 -49 53q-81 40 -90 47q-49 35 -49 92q0 52 27.5 84.5t74.5 32.5q27 0 50 -12t28 -13q12 0 22 25h19v-118h-23q-6 43 -31.5 70t-62.5 27q-59 0 -59 -47q0 -34 50 -58l92 -44q50 -34 50 -91t-27 -93q-29 -39 -84 -39
q-28 0 -57 11t-33 11q-11 0 -14 -22z" />
    <glyph glyph-name="t" unicode="t" horiz-adv-x="278" 
d="M63 354h-49v21h49v104q36 0 106 7v-111h79v-21h-79v-274q0 -27 5.5 -34.5t21.5 -7.5q27 0 44 47h23q-18 -94 -109 -94q-52 0 -72 23q-19 20 -19 70v270z" />
    <glyph glyph-name="u" unicode="u" horiz-adv-x="444" 
d="M272 -4l-9 49q-51 -54 -109 -54q-103 0 -103 108v255h-41v21q91 0 147 7v-303q0 -46 43 -46q26 0 45 24q26 33 26 104v193h-49v21q52 0 78 1q42 2 77 6v-359h42v-21q-57 0 -147 -6z" />
    <glyph glyph-name="v" unicode="v" 
d="M16 354v21h167v-21h-34l84 -216l80 216h-40v21h93v-21h-26l-133 -363h-24l-140 363h-27z" />
    <glyph glyph-name="w" unicode="w" horiz-adv-x="556" 
d="M183 354h-39l67 -212h2l91 233h20l86 -232h2l68 211h-38v21h93v-21h-28l-120 -363h-24l-90 239l-91 -239h-25l-114 363h-27v21h167v-21z" />
    <glyph glyph-name="x" unicode="x" horiz-adv-x="444" 
d="M150 0h-127v21h48l103 140l-122 193h-31v21h197v-21h-46l70 -107l82 107h-51v21h123v-21h-41l-99 -131l135 -202h30v-21h-196v21h45l-81 118l-89 -118h50v-21z" />
    <glyph glyph-name="y" unicode="y" 
d="M183 354h-37l89 -219l76 219h-38v21h95v-21h-29l-154 -429q-31 -87 -57.5 -119.5t-63.5 -32.5q-23 0 -38.5 16.5t-15.5 40.5q0 47 49 47q17 0 31.5 -15t21.5 -15q26 0 70 148l-139 359h-27v21h167v-21z" />
    <glyph glyph-name="z" unicode="z" horiz-adv-x="333" 
d="M299 141l-2 -141h-281v32l173 322h-44q-41 0 -64 -30q-21 -26 -34 -87h-22l3 138h273v-24l-174 -330h46q45 0 65.5 25t39.5 95h21z" />
    <glyph glyph-name="braceleft" unicode="{" horiz-adv-x="333" 
d="M121 -82v182q0 52 -15.5 77.5t-60.5 39.5q45 14 61 41q15 24 15 76v182q0 87 42 118q34 26 125 26v-11q-71 -21 -71 -127v-173q0 -59 -15 -86q-17 -32 -66 -45v-2q49 -13 66 -45q15 -27 15 -86v-173q0 -106 71 -127v-11q-91 0 -125 26q-42 31 -42 118z" />
    <glyph glyph-name="bar" unicode="|" horiz-adv-x="222" 
d="M63 -13v671h96v-671h-96z" />
    <glyph glyph-name="braceright" unicode="}" horiz-adv-x="333" 
d="M212 516v-182q0 -52 15 -76q16 -28 61 -41q-45 -14 -60.5 -40t-15.5 -78v-182q0 -87 -41 -118q-35 -25 -126 -25v11q71 21 71 126v173q0 59 15 87q17 32 66 45v2q-49 12 -66 45q-15 27 -15 86v173q0 105 -71 126v12q91 0 126 -26q41 -31 41 -118z" />
    <glyph glyph-name="asciitilde" unicode="~" horiz-adv-x="600" 
d="M495 336v0l36 -76q-30 -42 -50 -59q-34 -27 -75 -27q-42 0 -102 33q-63 35 -115 35q-51 0 -84 -72l-36 76q45 86 125 86q38 0 111 -32q82 -36 102 -36q41 0 88 72z" />
    <glyph glyph-name="euro" horiz-adv-x="498" 
d="M522 633l-23 -156l-48 6q0 157 -94 157q-103 0 -161 -211h172l-21 -48h-164q-6 -24 -16 -73h147l-21 -47h-134q-6 -41 -6 -74q0 -56 21 -91q26 -43 78 -43q58 0 101 68q24 38 51 119l55 -10l-54 -188q-77 -53 -159 -53q-111 0 -166 84q-47 71 -47 188h-74l21 47h56
q3 25 12 73h-66l21 48h59q41 112 108 183q83 88 187 88q94 0 165 -67z" />
    <glyph glyph-name="exclamdown" unicode="&#xa1;" horiz-adv-x="222" 
d="M99 216v0h23q0 -47 6 -136q9 -60 29 -159q15 -74 15 -92q0 -26 -17.5 -41t-43.5 -15t-43.5 15t-17.5 41q0 18 15 92q20 99 29 159q5 33 5 136zM43 363q0 28 20 48t48 20q29 0 48.5 -19.5t19.5 -48.5q0 -28 -20 -48t-48 -20t-48 20t-20 48z" />
    <glyph glyph-name="cent" unicode="&#xa2;" 
d="M102 -133l52 138q-50 21 -79 76q-27 51 -27 114q0 70 46 126q51 63 127 63q41 0 70 -16l41 108h35l-49 -131q22 -25 22 -58q0 -25 -14 -42.5t-39 -17.5q-9 0 -13 2l-76 -201q17 -10 36 -10q71 0 89 94h27q-15 -61 -43 -89q-33 -32 -92 -32q-16 0 -30 3l-48 -127h-35z
M174 59l71 187q-9 11 -9 29q0 28 23 43q19 10 19 24q0 10 -22 18q-17 5 -30 5q-33 0 -51 -28q-11 -17 -13 -49q-1 -12 -1 -82q0 -22 1 -48v-34q0 -38 12 -65z" />
    <glyph glyph-name="sterling" unicode="&#xa3;" 
d="M94 303h-73v30l59 -4q-30 88 -30 129q0 83 50 129q41 37 98 37q70 0 109 -36q33 -30 33 -72q0 -31 -19 -50.5t-51 -19.5q-21 0 -35 16t-14 42t31.5 43t31.5 14q0 14 -15 26q-20 15 -54 15q-33 0 -55 -20t-22 -56q0 -27 20 -74q34 -84 46 -119h88v-30h-81q8 -48 8 -72
q0 -32 -25 -123q43 -13 72 -13q47 0 62 18q11 13 22 63h20q-3 -186 -110 -186q-56 0 -100 47q-25 -47 -74 -47q-73 0 -73 76q0 30 19.5 49.5t53.5 19.5q20 0 58 -10v24q0 44 -50 154zM78 102q-17 0 -28.5 -12.5t-11.5 -29.5q0 -45 43 -45q23 0 39 20q14 16 14 30
q0 12 -20 24.5t-36 12.5z" />
    <glyph glyph-name="currency" unicode="&#xa4;" 
d="M194 363q-21 0 -37.5 -17t-16.5 -38q0 -24 16 -40.5t39 -16.5q22 0 37.5 16.5t15.5 40.5q0 22 -15.5 38.5t-38.5 16.5zM300 246l72 -72l-44 -43l-72 72q-29 -18 -61 -19q-34 1 -63 19l-71 -72l-44 43l71 72q-18 29 -18 62q0 35 19 62l-72 72l44 44l71 -73q31 17 63 17
q33 0 61 -17l72 73l44 -44l-72 -72q18 -28 18 -62q0 -31 -18 -62z" />
    <glyph glyph-name="yen" unicode="&#xa5;" 
d="M156 278l-19 45h-129v24h119l-108 246h-45v24h201v-24h-42l113 -258l113 258h-46v24h116v-24h-43l-107 -246h118v-24h-128l-7 -17v-80h135v-24h-135v-178h65v-24h-249v24h78v178h-148v24h148v52z" />
    <glyph glyph-name="brokenbar" unicode="&#xa6;" horiz-adv-x="222" 
d="M63 -13v268h96v-268h-96zM63 390v268h96v-268h-96z" />
    <glyph glyph-name="section" unicode="&#xa7;" horiz-adv-x="444" 
d="M131 -11q47 0 47 -44q0 -21 -16 -35.5t-16 -18.5q0 -18 29 -28q22 -8 43 -8q35 0 59.5 20t24.5 54q0 50 -67 105l-124 96q-67 63 -67 135q0 50 27 83q35 40 105 40l2 2q-46 36 -65 61q-30 39 -30 86q0 58 44 91q39 30 99 30q49 0 85 -26q40 -28 40 -75q0 -21 -15 -35.5
t-36 -14.5q-20 0 -34 12t-14 32q0 18 17 34t17 20q0 15 -25 25q-20 7 -38 7q-36 0 -60.5 -22t-24.5 -58q0 -35 68 -91q117 -96 125 -104q68 -67 68 -133q0 -49 -24 -81q-32 -42 -100 -42l-4 -4q89 -72 89 -147q0 -43 -32 -77q-40 -44 -114 -44q-51 0 -91 25q-46 30 -46 78
q0 21 16.5 36.5t37.5 15.5zM160 366q-26 0 -45.5 -21t-19.5 -47q0 -54 86 -120q18 -15 35 -30q30 -20 64 -20q28 0 47.5 19.5t19.5 54.5q0 36 -77 106q-64 58 -110 58z" />
    <glyph glyph-name="dieresis" unicode="&#xa8;" horiz-adv-x="222" 
d="M199 559q22 0 37.5 -15.5t15.5 -37.5t-15.5 -37.5t-38.5 -15.5q-22 0 -37 15.5t-15 37.5t15.5 37.5t37.5 15.5zM23 559q22 0 37.5 -15.5t15.5 -37.5t-15.5 -37.5t-38.5 -15.5q-22 0 -37 15.5t-15 37.5t15.5 37.5t37.5 15.5z" />
    <glyph glyph-name="copyright" unicode="&#xa9;" horiz-adv-x="800" 
d="M400 -13q-140 0 -234 96.5t-94 238.5t94 239t234 97t234 -97t94 -239t-94 -238.5t-234 -96.5zM400 39q109 0 183 83t74 200q0 118 -73.5 201t-183.5 83q-109 0 -183 -83.5t-74 -200.5t74 -200t183 -83zM541 248h19l-14 -70q-1 -11 -27 -20q-54 -18 -100 -18
q-96 0 -149 48q-57 50 -57 145q0 72 47 124q57 63 166 63q41 0 98 -18q21 -7 21 -20v-68h-20q-21 83 -99 83q-107 0 -109 -160q-2 -175 110 -175q76 0 114 86z" />
    <glyph glyph-name="ordfeminine" unicode="&#xaa;" horiz-adv-x="250" 
d="M221 569v-142q0 -14 9 -14q5 0 17 7l7 -13q-16 -25 -63 -25q-30 0 -42 30q-28 -30 -85 -30q-59 0 -59 54q0 74 131 88v37q0 44 -27 44q-29 0 -29 -12q0 -1 7 -11t7 -19q0 -29 -40 -29q-35 0 -35 36q0 54 115 54q87 0 87 -55zM82 458q0 -44 28 -44q16 0 21.5 17.5
t4.5 75.5q-54 -2 -54 -49z" />
    <glyph glyph-name="guillemotleft" unicode="&#xab;" 
d="M138 239v0l-36 -49q99 -129 99 -145q0 -11 -10 -11q-1 0 -22 19t-127 107q-27 22 -27 28t11 15q113 94 152 133q7 7 13 7q10 0 10 -9q0 -2 -63 -95zM298 239v0l-36 -49q99 -129 99 -145q0 -11 -10 -11q-1 0 -22 19t-127 107q-27 22 -27 28t11 15q113 94 152 133q7 7 13 7
q10 0 10 -9q0 -2 -63 -95z" />
    <glyph glyph-name="logicalnot" unicode="&#xac;" horiz-adv-x="600" 
d="M456 108v201h-408v96h504v-297h-96z" />
    <glyph glyph-name="sfthyphen" unicode="&#xad;" horiz-adv-x="338" 
d="M8 174l33 122h246l-33 -122h-246z" />
    <glyph glyph-name="registered" unicode="&#xae;" horiz-adv-x="800" 
d="M242 492v17h186q47 0 75 -22q32 -24 32 -70q0 -33 -20.5 -60.5t-54.5 -37.5l55 -79q27 -39 62 -78v-11h-80q-17 0 -45 52q-52 97 -57 105h-31v-100q0 -26 6 -32t37 -8v-17h-165v17q30 2 36 8.5t6 31.5v243q0 26 -6 32.5t-36 8.5zM364 487v-158h30q55 0 55 84q0 74 -53 74
h-32zM400 -13q-140 0 -234 96.5t-94 238.5t94 239t234 97t234 -97t94 -239t-94 -238.5t-234 -96.5zM400 39q109 0 183 83t74 200q0 118 -73.5 201t-183.5 83q-109 0 -183 -83.5t-74 -200.5t74 -200t183 -83z" />
    <glyph glyph-name="macron" unicode="&#xaf;" horiz-adv-x="222" 
d="M247 528v-50h-270v50h270z" />
    <glyph glyph-name="macron" unicode="&#x2c9;" horiz-adv-x="222" 
d="M247 528v-50h-270v50h270z" />
    <glyph glyph-name="degree" unicode="&#xb0;" 
d="M195 380q39 0 68 30.5t29 70.5t-29 70.5t-68 30.5t-68 -30.5t-29 -70.5t29 -70.5t68 -30.5zM195 338q-60 0 -101.5 41.5t-41.5 101.5t41.5 101.5t101.5 41.5t101.5 -41.5t41.5 -101.5t-41.5 -101.5t-101.5 -41.5z" />
    <glyph glyph-name="plusminus" unicode="&#xb1;" horiz-adv-x="600" 
d="M252 368v138h96v-138h204v-96h-204v-138h-96v138h-204v96h204zM48 0v96h504v-96h-504z" />
    <glyph glyph-name="twosuperior" unicode="&#xb2;" horiz-adv-x="233" 
d="M221 250h-227v31q85 88 116 146q24 45 24 94q0 76 -58 76q-27 0 -44 -18q-13 -15 -13 -28q0 -11 8 -11l6.5 3t19.5 3q29 0 29 -36t-45 -36q-23 0 -35 19t-12 43q0 41 32 64.5t85 23.5q51 0 85 -26t34 -66q0 -31 -16 -57q-13 -22 -51 -58l-107 -104h117q24 0 31 8.5
t8 42.5h23z" />
    <glyph glyph-name="threesuperior" unicode="&#xb3;" horiz-adv-x="233" 
d="M131 348q0 45 -7 64q-12 30 -48 30q-4 0 -12.5 -1.5t-12.5 -1.5q-12 0 -12 10q0 9 16 9h8q5 -1 7 -1q54 0 54 77q0 35 -6 49q-9 22 -37 22q-8 0 -19 -4.5t-11 -10.5q0 -2 12.5 -12.5t12.5 -20.5q0 -36 -42 -36q-14 0 -23.5 12t-9.5 29q0 26 27.5 44t75.5 18q43 0 75 -19
q39 -23 39 -64q0 -68 -103 -90v-2q116 -14 116 -98q0 -107 -142 -107q-98 0 -98 75q0 40 46 40q10 0 20 -7q14 -10 14 -26q0 -18 -19 -29t-19 -15q0 -8 17 -14q13 -5 21 -5q60 0 60 85z" />
    <glyph glyph-name="acute" unicode="&#xb4;" horiz-adv-x="222" 
d="M96 439h-46l122 138q34 38 52 38q35 0 35 -36q0 -23 -32 -46z" />
    <glyph glyph-name="mu" unicode="&#xb5;" horiz-adv-x="444" 
d="M377 23h42v-21q-97 0 -147 -6l-9 49q-51 -54 -109 -54q-22 0 -36 8v-28q0 -29 20.5 -61t20.5 -61q0 -76 -59 -76q-72 0 -72 97q0 15 11.5 72t11.5 100v312h-41v21q91 0 147 7v-303q0 -46 43 -46q26 0 45 24q26 33 26 104v193h-49v21q52 0 78 1q42 2 77 6v-359z" />
    <glyph glyph-name="mu" unicode="&#x3bc;" horiz-adv-x="444" 
d="M377 23h42v-21q-97 0 -147 -6l-9 49q-51 -54 -109 -54q-22 0 -36 8v-28q0 -29 20.5 -61t20.5 -61q0 -76 -59 -76q-72 0 -72 97q0 15 11.5 72t11.5 100v312h-41v21q91 0 147 7v-303q0 -46 43 -46q26 0 45 24q26 33 26 104v193h-49v21q52 0 78 1q42 2 77 6v-359z" />
    <glyph glyph-name="paragraph" unicode="&#xb6;" horiz-adv-x="620" 
d="M272 648h271v-30h-74v-802h74v-30h-394v30h77v421q-82 0 -127.5 58t-45.5 155q0 105 50 151.5t169 46.5zM226 271v345q-46 -3 -64.5 -42.5t-18.5 -125.5t17 -126q19 -45 66 -51zM308 618v-802h79v802h-79z" />
    <glyph glyph-name="ch270" unicode="&#xb7;" horiz-adv-x="249" 
d="M38 348q0 34 23 57t57 23t57.5 -23t23.5 -57t-23.5 -57.5t-57.5 -23.5t-57 23.5t-23 57.5z" />
    <glyph glyph-name="ch270" unicode="&#x2219;" horiz-adv-x="249" 
d="M38 348q0 34 23 57t57 23t57.5 -23t23.5 -57t-23.5 -57.5t-57.5 -23.5t-57 23.5t-23 57.5z" />
    <glyph glyph-name="cedilla" unicode="&#xb8;" horiz-adv-x="222" 
d="M50 -97l42 97h34l-28 -66q19 7 35 7q83 0 83 -75q0 -40 -38 -63q-33 -19 -79 -19q-53 0 -92 18l11 27q23 -13 57 -13q74 0 74 43q0 48 -53 48q-8 0 -38 -9z" />
    <glyph glyph-name="onesuperior" unicode="&#xb9;" horiz-adv-x="233" 
d="M229 271v-21h-221v21h69v325h-66v21q82 5 155 7v-353h63z" />
    <glyph glyph-name="ordmasculine" unicode="&#xba;" horiz-adv-x="250" 
d="M247 505v-6q0 -48 -29 -80q-33 -37 -93 -37q-61 0 -93 37q-29 33 -29 85q0 50 29 83q33 37 93 37t93 -37q29 -33 29 -82zM163 453v103q0 51 -38 51t-38 -45v-108q0 -55 38 -55q24 0 32 16q6 11 6 38z" />
    <glyph glyph-name="guillemotright" unicode="&#xbb;" 
d="M251 138v0l36 49q-99 129 -99 145q0 11 10 11q1 0 22 -19t127 -107q27 -22 27 -28t-11 -15q-113 -94 -152 -133q-7 -7 -13 -7q-10 0 -10 9q0 2 63 95zM91 138v0l36 49q-99 129 -99 145q0 11 10 11q1 0 22 -19t127 -107q27 -22 27 -28t-11 -15q-113 -94 -152 -133
q-7 -7 -13 -7q-10 0 -10 9q0 2 63 95z" />
    <glyph glyph-name="onequarter" unicode="&#xbc;" horiz-adv-x="600" 
d="M522 14h38v-14h-150v14h40v85h-108v21q54 118 133 255h47v-261h30v39h13v-93h-13v39h-30v-85zM355 114h95v184h-2q-33 -60 -93 -184zM241 271v-21h-221v21h69v325h-66v21q82 5 155 7v-353h63zM522 624l-328 -633h-51l328 633h51z" />
    <glyph glyph-name="onehalf" unicode="&#xbd;" horiz-adv-x="600" 
d="M593 0h-227v31q85 88 116 146q24 45 24 94q0 76 -58 76q-27 0 -44 -18q-13 -15 -13 -28q0 -11 8 -11l6.5 3t19.5 3q29 0 29 -36t-45 -36q-23 0 -35 19t-12 43q0 41 32 64.5t85 23.5q51 0 85 -26t34 -66q0 -31 -16 -57q-13 -22 -51 -58l-107 -104h117q24 0 31 8.5t8 42.5
h23zM221 271v-21h-221v21h69v325h-66v21q82 5 155 7v-353h63zM492 624l-328 -633h-51l328 633h51z" />
    <glyph glyph-name="threequarters" unicode="&#xbe;" horiz-adv-x="600" 
d="M519 624l-328 -633h-51l328 633h51zM160 348q0 45 -7 64q-12 30 -48 30q-4 0 -12.5 -1.5t-12.5 -1.5q-12 0 -12 10q0 9 16 9h8q5 -1 7 -1q54 0 54 77q0 35 -6 49q-9 22 -37 22q-8 0 -19 -4.5t-11 -10.5q0 -2 12.5 -12.5t12.5 -20.5q0 -36 -42 -36q-14 0 -23.5 12t-9.5 29
q0 26 27.5 44t75.5 18q43 0 75 -19q39 -23 39 -64q0 -68 -103 -90v-2q116 -14 116 -98q0 -107 -142 -107q-98 0 -98 75q0 40 46 40q10 0 20 -7q14 -10 14 -26q0 -18 -19 -29t-19 -15q0 -8 17 -14q13 -5 21 -5q60 0 60 85zM527 14h38v-14h-150v14h40v85h-108v21
q54 118 133 255h47v-261h30v39h13v-93h-13v39h-30v-85zM360 114h95v184h-2q-33 -60 -93 -184z" />
    <glyph glyph-name="questiondown" unicode="&#xbf;" horiz-adv-x="333" 
d="M195 224h20q8 -56 8 -85q0 -68 -27 -105q-42 -46 -85 -91q-30 -32 -30 -67q0 -37 25 -60t63 -23q35 0 60 14q22 12 22 27q0 7 -16 7q-54 0 -54 56q0 16 17 31t39 15q27 0 43.5 -18t16.5 -42q0 -52 -39 -82q-35 -28 -88 -28q-65 0 -107 47q-40 44 -40 107q0 102 77 162
q55 43 71 59q26 27 26 51q0 9 -2 25zM127 363q0 28 20 48t48 20q29 0 49 -20t20 -48t-20.5 -48t-48.5 -20t-48 20t-20 48z" />
    <glyph glyph-name="Agrave" unicode="&#xc0;" horiz-adv-x="500" 
d="M263 688h-19l-113 75q-25 17 -25 37q0 25 27 25q21 0 42 -26zM481 0h-217v24h47l-46 170h-130l-45 -170h60v-24h-136v24h47l174 624h39l170 -624h37v-24zM258 221l-56 208h-2l-57 -208h115z" />
    <glyph glyph-name="Aacute" unicode="&#xc1;" horiz-adv-x="500" 
d="M258 221l-56 208h-2l-57 -208h115zM444 24h37v-24h-217v24h47l-46 170h-130l-45 -170h60v-24h-136v24h47l174 624h39zM264 688h-19l88 111q21 26 42 26q27 0 27 -25q0 -20 -25 -37z" />
    <glyph glyph-name="Acircumflex" unicode="&#xc2;" horiz-adv-x="500" 
d="M258 221l-56 208h-2l-57 -208h115zM444 24h37v-24h-217v24h47l-46 170h-130l-45 -170h60v-24h-136v24h47l174 624h39zM184 648h-30l75 121h50l76 -121h-31l-70 77z" />
    <glyph glyph-name="Atilde" unicode="&#xc3;" horiz-adv-x="500" 
d="M258 221l-56 208h-2l-57 -208h115zM444 24h37v-24h-217v24h47l-46 170h-130l-45 -170h60v-24h-136v24h47l174 624h39zM363 776h24q-46 -89 -102 -88q-21 0 -51 22.5t-39 22.5q-28 0 -48 -45h-24q40 88 102 87q11 0 23 -9t23 -17q30 -20 43 -20q22 0 49 47z" />
    <glyph glyph-name="Adieresis" unicode="&#xc4;" horiz-adv-x="500" 
d="M258 221l-56 208h-2l-57 -208h115zM444 24h37v-24h-217v24h47l-46 170h-130l-45 -170h60v-24h-136v24h47l174 624h39zM338 812q22 0 37.5 -15.5t15.5 -37.5t-15.5 -37.5t-38.5 -15.5q-22 0 -37 15.5t-15 37.5t15.5 37.5t37.5 15.5zM162 812q22 0 37.5 -15.5t15.5 -37.5
t-15.5 -37.5t-38.5 -15.5q-22 0 -37 15.5t-15 37.5t15.5 37.5t37.5 15.5z" />
    <glyph glyph-name="Aring" unicode="&#xc5;" horiz-adv-x="500" 
d="M258 221l-56 208h-2l-57 -208h115zM444 24h37v-24h-217v24h47l-46 170h-130l-45 -170h60v-24h-136v24h47l174 624h39zM251 829q-23 0 -39 -16.5t-16 -39.5t16 -39t39 -16t39.5 16t16.5 39t-16.5 39.5t-39.5 16.5zM251 865q38 0 65 -27t27 -65t-27 -64.5t-65 -26.5
t-64.5 26.5t-26.5 64.5t26.5 65t64.5 27z" />
    <glyph glyph-name="AE" unicode="&#xc6;" horiz-adv-x="667" 
d="M129 24v-24h-131v24h42l173 510q14 41 14 52q0 32 -59 38v24h461l6 -165h-23q-24 84 -58 114q-32 27 -96 27h-45v-273q53 0 74 30q17 25 19 85h25v-269h-22q-9 72 -24 96q-20 32 -72 32v-301h47q87 0 126 59q28 41 38 128h26l-9 -211h-397v24h44v245h-134l-86 -245h61z
M273 624l-110 -328h125v328h-15z" />
    <glyph glyph-name="Ccedilla" unicode="&#xc7;" horiz-adv-x="444" 
d="M401 -6l-29 30q-55 -37 -115 -37q-88 0 -153 73q-81 91 -81 262q0 141 70 238.5t170 97.5q64 0 112 -53l24 43h18v-182h-20q-15 74 -37 111q-35 57 -95 57q-88 0 -88 -169v-290q0 -164 100 -164q47 0 82 52q33 49 42 119h21v-188h-21zM173 -97l42 97h34l-28 -66
q19 7 35 7q83 0 83 -75q0 -40 -38 -63q-33 -19 -79 -19q-53 0 -92 18l11 27q23 -13 57 -13q74 0 74 43q0 48 -53 48q-8 0 -38 -9z" />
    <glyph glyph-name="Egrave" unicode="&#xc8;" horiz-adv-x="444" 
d="M427 211l-9 -211h-406v24h44v600h-44v24h394l6 -165h-23q-22 76 -49 105q-34 36 -105 36h-45v-273q54 0 75 32q16 25 18 83h25v-269h-22q-9 72 -24 96q-20 32 -72 32v-301h47q86 0 126 59q28 42 38 128h26zM227 688h-19l-113 75q-25 17 -25 37q0 25 27 25q21 0 42 -26z
" />
    <glyph glyph-name="Eacute" unicode="&#xc9;" horiz-adv-x="444" 
d="M427 211l-9 -211h-406v24h44v600h-44v24h394l6 -165h-23q-22 76 -49 105q-34 36 -105 36h-45v-273q54 0 75 32q16 25 18 83h25v-269h-22q-9 72 -24 96q-20 32 -72 32v-301h47q86 0 126 59q28 42 38 128h26zM228 688h-19l88 111q21 26 42 26q27 0 27 -25q0 -20 -25 -37z
" />
    <glyph glyph-name="Ecircumflex" unicode="&#xca;" horiz-adv-x="444" 
d="M427 211l-9 -211h-406v24h44v600h-44v24h394l6 -165h-23q-22 76 -49 105q-34 36 -105 36h-45v-273q54 0 75 32q16 25 18 83h25v-269h-22q-9 72 -24 96q-20 32 -72 32v-301h47q86 0 126 59q28 42 38 128h26zM148 668h-30l75 121h50l76 -121h-31l-70 77z" />
    <glyph glyph-name="Edieresis" unicode="&#xcb;" horiz-adv-x="444" 
d="M427 211l-9 -211h-406v24h44v600h-44v24h394l6 -165h-23q-24 84 -58 114q-32 27 -96 27h-45v-273q53 0 74 30q17 25 19 85h25v-269h-22q-9 72 -24 96q-20 32 -72 32v-301h47q87 0 126 59q28 41 38 128h26zM310 812q22 0 37.5 -15.5t15.5 -37.5t-15.5 -37.5t-38.5 -15.5
q-22 0 -37 15.5t-15 37.5t15.5 37.5t37.5 15.5zM134 812q22 0 37.5 -15.5t15.5 -37.5t-15.5 -37.5t-38.5 -15.5q-22 0 -37 15.5t-15 37.5t15.5 37.5t37.5 15.5z" />
    <glyph glyph-name="Igrave" unicode="&#xcc;" horiz-adv-x="278" 
d="M206 24h52v-24h-238v24h52v600h-52v24h238v-24h-52v-600zM148 688h-19l-113 75q-25 17 -25 37q0 25 27 25q21 0 42 -26z" />
    <glyph glyph-name="Iacute" unicode="&#xcd;" horiz-adv-x="278" 
d="M206 24h52v-24h-238v24h52v600h-52v24h238v-24h-52v-600zM149 687h-19l88 111q21 26 42 26q27 0 27 -25q0 -20 -25 -37z" />
    <glyph glyph-name="Icircumflex" unicode="&#xce;" horiz-adv-x="278" 
d="M206 24h52v-24h-238v24h52v600h-52v24h238v-24h-52v-600zM42 692h-42l104 169h70l105 -169h-43l-97 108z" />
    <glyph glyph-name="Idieresis" unicode="&#xcf;" horiz-adv-x="278" 
d="M206 24h52v-24h-238v24h52v600h-52v24h238v-24h-52v-600zM227 812q22 0 37.5 -15.5t15.5 -37.5t-15.5 -37.5t-38.5 -15.5q-22 0 -37 15.5t-15 37.5t15.5 37.5t37.5 15.5zM51 812q22 0 37.5 -15.5t15.5 -37.5t-15.5 -37.5t-38.5 -15.5q-22 0 -37 15.5t-15 37.5t15.5 37.5
t37.5 15.5z" />
    <glyph glyph-name="Eth" unicode="&#xd0;" horiz-adv-x="500" 
d="M198 624v-271h75v-27h-75v-302h11q85 0 108 70q15 48 15 228q0 183 -17 235q-22 67 -100 67h-17zM64 624h-44v24h194q264 0 264 -337q0 -145 -67.5 -228t-181.5 -83h-209v24h44v302h-75v27h75v271z" />
    <glyph glyph-name="Ntilde" unicode="&#xd1;" horiz-adv-x="500" 
d="M153 24v-24h-141v24h53v600h-53v24h182l198 -388h2v364h-54v24h135v-24h-51v-635h-37l-290 567h-2v-532h58zM369 829v0h29q-25 -110 -96 -110q-27 0 -68.5 23.5t-55.5 23.5q-36 0 -46 -50h-29q20 108 96 108q22 0 64 -24t60 -24q28 0 46 53z" />
    <glyph glyph-name="Ograve" unicode="&#xd2;" horiz-adv-x="556" 
d="M371 165v289q0 84 -10 117q-20 63 -83 63t-83 -63q-10 -33 -10 -117v-289q0 -154 93 -154t93 154zM278 658q118 0 188 -114q59 -96 59 -222q0 -125 -60 -222q-69 -113 -187 -113t-187 113q-60 97 -60 222q0 126 59 222q70 114 188 114zM287 698h-19l-113 75
q-25 17 -25 37q0 25 27 25q21 0 42 -26z" />
    <glyph glyph-name="Oacute" unicode="&#xd3;" horiz-adv-x="556" 
d="M371 165v289q0 84 -10 117q-20 63 -83 63t-83 -63q-10 -33 -10 -117v-289q0 -154 93 -154t93 154zM278 658q118 0 188 -114q59 -96 59 -222q0 -125 -60 -222q-69 -113 -187 -113t-187 113q-60 97 -60 222q0 126 59 222q70 114 188 114zM288 698h-19l88 111q21 26 42 26
q27 0 27 -25q0 -20 -25 -37z" />
    <glyph glyph-name="Ocircumflex" unicode="&#xd4;" horiz-adv-x="556" 
d="M371 165v289q0 84 -10 117q-20 63 -83 63t-83 -63q-10 -33 -10 -117v-289q0 -154 93 -154t93 154zM278 658q118 0 188 -114q59 -96 59 -222q0 -125 -60 -222q-69 -113 -187 -113t-187 113q-60 97 -60 222q0 126 59 222q70 114 188 114zM208 658h-30l75 121h50l76 -121
h-31l-70 77z" />
    <glyph glyph-name="Otilde" unicode="&#xd5;" horiz-adv-x="556" 
d="M371 165v289q0 84 -10 117q-20 63 -83 63t-83 -63q-10 -33 -10 -117v-289q0 -154 93 -154t93 154zM278 658q118 0 188 -114q59 -96 59 -222q0 -125 -60 -222q-69 -113 -187 -113t-187 113q-60 97 -60 222q0 126 59 222q70 114 188 114zM387 786h24q-46 -89 -102 -88
q-21 0 -51 22.5t-39 22.5q-28 0 -48 -45h-24q40 88 102 87q11 0 23 -9t23 -17q30 -20 43 -20q22 0 49 47z" />
    <glyph glyph-name="Odieresis" unicode="&#xd6;" horiz-adv-x="556" 
d="M371 165v289q0 111 -25 150q-19 30 -68 30t-68 -30q-25 -39 -25 -150v-289q0 -154 93 -154t93 154zM278 658q103 0 174 -94q73 -97 73 -242q0 -144 -72 -239.5t-175 -95.5t-175 95.5t-72 239.5q0 145 73 242q71 94 174 94zM366 812q22 0 37.5 -15.5t15.5 -37.5
t-15.5 -37.5t-38.5 -15.5q-22 0 -37 15.5t-15 37.5t15.5 37.5t37.5 15.5zM190 812q22 0 37.5 -15.5t15.5 -37.5t-15.5 -37.5t-38.5 -15.5q-22 0 -37 15.5t-15 37.5t15.5 37.5t37.5 15.5z" />
    <glyph glyph-name="multiply" unicode="&#xd7;" horiz-adv-x="600" 
d="M233 253l-166 166l67 67l166 -167l166 167l67 -67l-167 -166l167 -166l-67 -67l-166 167l-166 -167l-67 67z" />
    <glyph glyph-name="Oslash" unicode="&#xd8;" horiz-adv-x="556" 
d="M185 454v-276h2l179 357q-8 60 -31 82q-18 17 -57 17q-49 0 -68 -30q-25 -39 -25 -150zM371 165v302h-2l-180 -358q14 -98 89 -98q93 0 93 154zM69 -51l55 109q-93 96 -93 264q0 145 73 242q71 94 174 94q70 0 127 -46l44 87h39l-56 -111q93 -100 93 -266
q0 -144 -72 -239.5t-175 -95.5q-71 0 -127 47l-43 -85h-39z" />
    <glyph glyph-name="Ugrave" unicode="&#xd9;" horiz-adv-x="500" 
d="M250 624h-48v-493q0 -112 91 -112q115 0 115 152v453h-49v24h128v-24h-49v-445q0 -82 -25 -124q-40 -68 -151 -68q-85 0 -137 38q-57 43 -57 125v474h-46v24h228v-24zM313 668h-19l-113 75q-25 17 -25 37q0 25 27 25q21 0 42 -26z" />
    <glyph glyph-name="Uacute" unicode="&#xda;" horiz-adv-x="500" 
d="M250 624h-48v-493q0 -112 91 -112q115 0 115 152v453h-49v24h128v-24h-49v-445q0 -82 -25 -124q-40 -68 -151 -68q-85 0 -137 38q-57 43 -57 125v474h-46v24h228v-24zM314 668h-19l88 111q21 26 42 26q27 0 27 -25q0 -20 -25 -37z" />
    <glyph glyph-name="Ucircumflex" unicode="&#xdb;" horiz-adv-x="500" 
d="M250 624h-48v-493q0 -112 91 -112q115 0 115 152v453h-49v24h128v-24h-49v-445q0 -82 -25 -124q-40 -68 -151 -68q-103 0 -153 53q-41 42 -41 110v474h-46v24h228v-24zM158 692h-42l104 169h70l105 -169h-43l-97 108z" />
    <glyph glyph-name="Udieresis" unicode="&#xdc;" horiz-adv-x="500" 
d="M250 624h-48v-493q0 -112 91 -112q115 0 115 152v453h-49v24h128v-24h-49v-445q0 -82 -25 -124q-40 -68 -151 -68q-103 0 -153 53q-41 42 -41 110v474h-46v24h228v-24zM348 812q22 0 37.5 -15.5t15.5 -37.5t-15.5 -37.5t-38.5 -15.5q-22 0 -37 15.5t-15 37.5t15.5 37.5
t37.5 15.5zM172 812q22 0 37.5 -15.5t15.5 -37.5t-15.5 -37.5t-38.5 -15.5q-22 0 -37 15.5t-15 37.5t15.5 37.5t37.5 15.5z" />
    <glyph glyph-name="Yacute" unicode="&#xdd;" horiz-adv-x="500" 
d="M318 24h59v-24h-250v24h57v266l-135 334h-35v24h211v-24h-42l113 -276l113 276h-46v24h116v-24h-38l-123 -303v-297zM304 658h-19l88 111q21 26 42 26q27 0 27 -25q0 -20 -25 -37z" />
    <glyph glyph-name="Thorn" unicode="&#xde;" horiz-adv-x="500" 
d="M206 499v-295h19q55 0 82 32q32 37 32 125q0 70 -17 99q-23 39 -89 39h-27zM259 24v-24h-235v24h48v600h-48v24h235v-24h-53v-101h62q97 0 156 -43t59 -120q0 -179 -238 -179h-39v-157h53z" />
    <glyph glyph-name="germandbls" unicode="&#xdf;" horiz-adv-x="444" 
d="M150 545v-545h-145v21h46v463q0 85 45.5 129.5t129.5 44.5q68 0 111 -40.5t43 -108.5q0 -117 -111 -145v-2q72 -15 110 -65t38 -123q0 -81 -42.5 -132t-105.5 -51q-41 0 -67 24q-23 21 -23 50q0 25 14 39t33 14q15 0 26 -11q13 -14 13 -36q0 -13 -14.5 -27.5t-14.5 -19.5
q0 -13 26 -13q29 0 38 37q6 24 6 90v47q0 73 -3 90q-8 57 -45 66q-17 3 -43 7q-10 2 -10 12q0 9 49 16q26 4 26 84v85q0 50 -9 68q-13 26 -55 26q-41 0 -55 -29q-11 -20 -11 -65z" />
    <glyph glyph-name="agrave" unicode="&#xe0;" 
d="M358 46l10 -13q-25 -42 -81 -42q-48 0 -64 50q-42 -50 -116 -50q-40 0 -65.5 21.5t-25.5 60.5q0 73 69 106q42 20 133 32v78q0 38 -6 51q-10 22 -43 22q-45 0 -45 -20q0 -1 10.5 -18.5t10.5 -31.5q0 -18 -13.5 -33t-31.5 -15q-54 0 -54 51q0 47 48 71q37 18 90 18
q54 0 89 -18q45 -23 45 -72v-236q0 -24 14 -24q7 0 26 12zM119 109q0 -74 44 -74q45 0 54 60q3 15 1 95q-99 -2 -99 -81zM193 434h-19l-113 75q-25 17 -25 37q0 25 27 25q21 0 42 -26z" />
    <glyph glyph-name="aacute" unicode="&#xe1;" 
d="M358 46l10 -13q-25 -42 -81 -42q-48 0 -64 50q-42 -50 -116 -50q-40 0 -65.5 21.5t-25.5 60.5q0 73 69 106q42 20 133 32v78q0 38 -6 51q-10 22 -43 22q-45 0 -45 -20q0 -1 10.5 -18.5t10.5 -31.5q0 -18 -13.5 -33t-31.5 -15q-54 0 -54 51q0 47 48 71q37 18 90 18
q54 0 89 -18q45 -23 45 -72v-236q0 -24 14 -24q7 0 26 12zM119 109q0 -74 44 -74q45 0 54 60q3 15 1 95q-99 -2 -99 -81zM194 434h-19l88 111q21 26 42 26q27 0 27 -25q0 -20 -25 -37z" />
    <glyph glyph-name="acircumflex" unicode="&#xe2;" 
d="M358 46l10 -13q-25 -42 -81 -42q-48 0 -64 50q-42 -50 -116 -50q-40 0 -65.5 21.5t-25.5 60.5q0 73 69 106q42 20 133 32v78q0 38 -6 51q-10 22 -43 22q-45 0 -45 -20q0 -1 10.5 -18.5t10.5 -31.5q0 -18 -13.5 -33t-31.5 -15q-54 0 -54 51q0 47 48 71q37 18 90 18
q54 0 89 -18q45 -23 45 -72v-236q0 -24 14 -24q7 0 26 12zM119 109q0 -74 44 -74q45 0 54 60q3 15 1 95q-99 -2 -99 -81zM114 395h-30l75 121h50l76 -121h-31l-70 77z" />
    <glyph glyph-name="atilde" unicode="&#xe3;" 
d="M358 46l10 -13q-25 -42 -81 -42q-48 0 -64 50q-42 -50 -116 -50q-40 0 -65.5 21.5t-25.5 60.5q0 73 69 106q42 20 133 32v78q0 38 -6 51q-10 22 -43 22q-45 0 -45 -20q0 -1 10.5 -18.5t10.5 -31.5q0 -18 -13.5 -33t-31.5 -15q-54 0 -54 51q0 47 48 71q37 18 90 18
q54 0 89 -18q45 -23 45 -72v-236q0 -24 14 -24q7 0 26 12zM119 109q0 -74 44 -74q45 0 54 60q3 15 1 95q-99 -2 -99 -81zM293 522h24q-46 -89 -102 -88q-21 0 -51 22.5t-39 22.5q-28 0 -48 -45h-24q40 88 102 87q11 0 23 -9t23 -17q30 -20 43 -20q22 0 49 47z" />
    <glyph glyph-name="adieresis" unicode="&#xe4;" 
d="M358 46l10 -13q-25 -42 -81 -42q-48 0 -64 50q-42 -50 -116 -50q-41 0 -66 22t-25 60q0 73 69 106q41 20 133 32v78q0 38 -6 51q-10 22 -43 22q-45 0 -45 -20q0 -2 10.5 -18.5t10.5 -31.5q0 -20 -15 -34t-30 -14q-54 0 -54 51q0 32 26 56q37 33 112 33q62 0 98 -23.5
t36 -66.5v-236q0 -24 14 -24q7 0 26 12zM119 109q0 -74 44 -74q36 0 46.5 29t8.5 126q-99 -2 -99 -81zM283 559q22 0 37.5 -15.5t15.5 -37.5t-15.5 -37.5t-38.5 -15.5q-22 0 -37 15.5t-15 37.5t15.5 37.5t37.5 15.5zM107 559q22 0 37.5 -15.5t15.5 -37.5t-15.5 -37.5
t-38.5 -15.5q-22 0 -37 15.5t-15 37.5t15.5 37.5t37.5 15.5z" />
    <glyph glyph-name="aring" unicode="&#xe5;" 
d="M358 46l10 -13q-25 -42 -81 -42q-48 0 -64 50q-42 -50 -116 -50q-41 0 -66 22t-25 60q0 73 69 106q41 20 133 32v78q0 38 -6 51q-10 22 -43 22q-45 0 -45 -20q0 -2 10.5 -18.5t10.5 -31.5q0 -20 -15 -34t-30 -14q-54 0 -54 51q0 32 26 56q37 33 112 33q62 0 98 -23.5
t36 -66.5v-236q0 -24 14 -24q7 0 26 12zM119 109q0 -74 44 -74q36 0 46.5 29t8.5 126q-99 -2 -99 -81zM186 586q-23 0 -39 -16.5t-16 -39.5t16 -39t39 -16t39.5 16t16.5 39t-16.5 39.5t-39.5 16.5zM186 622q38 0 65 -27t27 -65t-27 -64.5t-65 -26.5t-64.5 26.5t-26.5 64.5
t26.5 65t64.5 27z" />
    <glyph glyph-name="ae" unicode="&#xe6;" horiz-adv-x="556" 
d="M320 217v-92q0 -107 72 -107q102 0 121 100h24q-12 -59 -52 -93t-99 -34q-111 0 -157 59q-46 -58 -126 -59q-40 -1 -65.5 21.5t-25.5 60.5q0 73 69 106q41 20 133 32v78q0 38 -6 51q-10 22 -43 22q-45 0 -45 -20q0 -2 10.5 -18.5t10.5 -31.5q0 -20 -15 -34t-30 -14
q-54 0 -54 51q0 32 26 56q37 33 112 33q67 0 102 -33q45 33 96 33q68 0 111.5 -49.5t43.5 -117.5h-213zM115 109q0 -74 44 -74q36 0 46.5 29t8.5 126q-99 -2 -99 -81zM320 241h104v56q0 42 -17 57q-10 9 -35 9q-52 0 -52 -69v-53z" />
    <glyph glyph-name="ccedilla" unicode="&#xe7;" horiz-adv-x="333" 
d="M291 111h26q-27 -120 -134 -120q-79 0 -125 64q-42 58 -42 140q0 70 47 127q52 62 126 62q54 0 88 -29q31 -27 31 -68q0 -25 -14 -42.5t-39 -17.5q-51 0 -51 48q0 29 22 42.5t22 19.5q0 12 -19 20t-36 8q-63 0 -63 -89q0 -17 -1 -46t-1 -42q0 -12 1 -36t1 -35
q0 -42 17 -69q19 -30 54 -30q72 0 90 93zM106 -97l42 97h34l-28 -66q19 7 35 7q83 0 83 -75q0 -40 -38 -63q-33 -19 -79 -19q-53 0 -92 18l11 27q23 -13 57 -13q74 0 74 43q0 48 -53 48q-8 0 -38 -9z" />
    <glyph glyph-name="egrave" unicode="&#xe8;" 
d="M354 217h-213v-92q0 -107 72 -107q102 0 121 100h24q-12 -59 -52 -93t-99 -34q-84 0 -134 58q-48 55 -48 140q0 79 47 135q50 60 127 60q68 0 111.5 -49t43.5 -118zM141 241h104v56q0 34 -10 48q-11 18 -42 18q-52 0 -52 -69v-53zM208 434h-19l-113 75q-25 17 -25 37
q0 25 27 25q21 0 42 -26z" />
    <glyph glyph-name="eacute" unicode="&#xe9;" 
d="M354 217h-213v-92q0 -107 72 -107q102 0 121 100h24q-12 -59 -52 -93t-99 -34q-84 0 -134 58q-48 55 -48 140q0 79 47 135q50 60 127 60q68 0 111.5 -49t43.5 -118zM141 241h104v56q0 34 -10 48q-11 18 -42 18q-52 0 -52 -69v-53zM209 434h-19l88 111q21 26 42 26
q27 0 27 -25q0 -20 -25 -37z" />
    <glyph glyph-name="ecircumflex" unicode="&#xea;" 
d="M354 217h-213v-92q0 -107 72 -107q102 0 121 100h24q-12 -59 -52 -93t-99 -34q-84 0 -134 58q-48 55 -48 140q0 79 47 135q50 60 127 60q68 0 111.5 -49t43.5 -118zM141 241h104v56q0 34 -10 48q-11 18 -42 18q-52 0 -52 -69v-53zM129 395h-30l75 121h50l76 -121h-31
l-70 77z" />
    <glyph glyph-name="edieresis" unicode="&#xeb;" 
d="M354 217h-213v-92q0 -107 72 -107q102 0 121 100h24q-12 -59 -52 -93t-99 -34q-84 0 -134 58q-48 55 -48 140q0 78 48.5 136.5t125.5 58.5q68 0 111.5 -49.5t43.5 -117.5zM141 241h104v56q0 42 -17 57q-10 9 -35 9q-52 0 -52 -69v-53zM283 559q22 0 37.5 -15.5
t15.5 -37.5t-15.5 -37.5t-38.5 -15.5q-22 0 -37 15.5t-15 37.5t15.5 37.5t37.5 15.5zM107 559q22 0 37.5 -15.5t15.5 -37.5t-15.5 -37.5t-38.5 -15.5q-22 0 -37 15.5t-15 37.5t15.5 37.5t37.5 15.5z" />
    <glyph glyph-name="igrave" unicode="&#xec;" horiz-adv-x="222" 
d="M11 21h44v333h-41v21q91 0 147 7v-361h39v-21h-189v21zM117 424h-19l-113 75q-25 17 -25 37q0 25 27 25q21 0 42 -26z" />
    <glyph glyph-name="iacute" unicode="&#xed;" horiz-adv-x="222" 
d="M11 21h44v333h-41v21q91 0 147 7v-361h39v-21h-189v21zM118 426h-19l88 111q21 26 42 26q27 0 27 -25q0 -20 -25 -37z" />
    <glyph glyph-name="icircumflex" unicode="&#xee;" horiz-adv-x="222" 
d="M11 21h44v333h-41v21q91 0 147 7v-361h39v-21h-189v21zM14 439h-42l104 169h70l105 -169h-43l-97 108z" />
    <glyph glyph-name="idieresis" unicode="&#xef;" horiz-adv-x="222" 
d="M11 21h44v333h-41v21q91 0 147 7v-361h39v-21h-189v21zM199 559q22 0 37.5 -15.5t15.5 -37.5t-15.5 -37.5t-38.5 -15.5q-22 0 -37 15.5t-15 37.5t15.5 37.5t37.5 15.5zM23 559q22 0 37.5 -15.5t15.5 -37.5t-15.5 -37.5t-38.5 -15.5q-22 0 -37 15.5t-15 37.5t15.5 37.5
t37.5 15.5z" />
    <glyph glyph-name="eth" unicode="&#xf0;" 
d="M203 512l-105 -70l-20 24l109 73q-36 60 -91 93l26 26q67 -38 115 -86l89 60l20 -24l-87 -58q108 -119 108 -290q0 -269 -173 -269q-83 0 -130 61q-43 55 -43 134q0 81 43 137q47 61 130 61q36 0 53 -12q-12 79 -44 140zM136 282v-180q0 -49 13 -70.5t45 -21.5
q38 0 51 29q7 17 7 62v181q0 83 -58 83t-58 -83z" />
    <glyph glyph-name="ntilde" unicode="&#xf1;" horiz-adv-x="444" 
d="M164 21h37v-21h-182v21h39l1 333h-41v21q41 0 67 1q42 2 77 6v-69l2 1q14 31 45.5 50.5t67.5 19.5q54 0 82 -35q25 -31 25 -77v-251h37v-21h-178v21h35v270q0 52 -46 52q-27 0 -47 -31q-21 -34 -21 -91v-200zM341 576v0h29q-25 -110 -96 -110q-27 0 -68.5 23.5
t-55.5 23.5q-36 0 -46 -50h-29q20 108 96 108q22 0 64 -24t60 -24q28 0 46 53z" />
    <glyph glyph-name="ograve" unicode="&#xf2;" 
d="M194 -9q-81 0 -129 59q-44 54 -44 137t44 138q48 59 129 59t129 -59q44 -55 44 -138t-44 -137q-48 -59 -129 -59zM136 282v-180q0 -92 58 -92q38 0 51 29q7 16 7 62v181q0 83 -58 83t-58 -83zM203 434h-19l-113 75q-25 17 -25 37q0 25 27 25q21 0 42 -26z" />
    <glyph glyph-name="oacute" unicode="&#xf3;" 
d="M194 -9q-81 0 -129 59q-44 54 -44 137t44 138q48 59 129 59t129 -59q44 -55 44 -138t-44 -137q-48 -59 -129 -59zM136 282v-180q0 -92 58 -92q38 0 51 29q7 16 7 62v181q0 83 -58 83t-58 -83zM204 434h-19l88 111q21 26 42 26q27 0 27 -25q0 -20 -25 -37z" />
    <glyph glyph-name="ocircumflex" unicode="&#xf4;" 
d="M194 -9q-81 0 -129 59q-44 54 -44 137t44 138q48 59 129 59t129 -59q44 -55 44 -138t-44 -137q-48 -59 -129 -59zM136 282v-180q0 -92 58 -92q38 0 51 29q7 16 7 62v181q0 83 -58 83t-58 -83zM124 395h-30l75 121h50l76 -121h-31l-70 77z" />
    <glyph glyph-name="otilde" unicode="&#xf5;" 
d="M194 -9q-81 0 -129 59q-44 54 -44 137t44 138q48 59 129 59t129 -59q44 -55 44 -138t-44 -137q-48 -59 -129 -59zM136 282v-180q0 -92 58 -92q38 0 51 29q7 16 7 62v181q0 83 -58 83t-58 -83zM303 522h24q-46 -89 -102 -88q-21 0 -51 22.5t-39 22.5q-28 0 -48 -45h-24
q40 88 102 87q11 0 23 -9t23 -17q30 -20 43 -20q22 0 49 47z" />
    <glyph glyph-name="odieresis" unicode="&#xf6;" 
d="M194 -9q-83 0 -130 61q-43 55 -43 135q0 81 43 136q47 61 130 61t130 -61q43 -55 43 -136q0 -80 -43 -135q-47 -61 -130 -61zM136 282v-180q0 -49 13 -70.5t45 -21.5q38 0 51 29q7 17 7 62v181q0 83 -58 83t-58 -83zM283 559q22 0 37.5 -15.5t15.5 -37.5t-15.5 -37.5
t-38.5 -15.5q-22 0 -37 15.5t-15 37.5t15.5 37.5t37.5 15.5zM107 559q22 0 37.5 -15.5t15.5 -37.5t-15.5 -37.5t-38.5 -15.5q-22 0 -37 15.5t-15 37.5t15.5 37.5t37.5 15.5z" />
    <glyph glyph-name="divide" unicode="&#xf7;" horiz-adv-x="600" 
d="M552 205h-504v96h504v-96zM302 380q-28 0 -48 20t-20 48t20 48t48 20t48 -20t20 -48t-20 -48t-48 -20zM301 126q28 0 48 -20t20 -48t-20 -48t-48 -20t-48 20t-20 48t20 48t48 20z" />
    <glyph glyph-name="oslash" unicode="&#xf8;" 
d="M136 282v-182h2l107 232q-11 33 -51 33q-58 0 -58 -83zM252 101v171h-2l-106 -231q13 -31 50 -31q38 0 51 29q7 17 7 62zM46 -93l53 113q-78 53 -78 167q0 81 43 136q47 61 130 61q38 0 69 -14l45 97h35l-52 -112q76 -54 76 -168q0 -80 -43 -135q-47 -61 -130 -61
q-37 0 -67 14l-46 -98h-35z" />
    <glyph glyph-name="ugrave" unicode="&#xf9;" horiz-adv-x="444" 
d="M272 -4l-9 49q-51 -54 -109 -54q-103 0 -103 108v255h-41v21q91 0 147 7v-303q0 -46 43 -46q40 0 58 48q13 33 13 80v193h-49v21q56 0 78 1q40 2 77 6v-359h42v-21q-57 0 -147 -6zM223 414h-19l-113 75q-25 17 -25 37q0 25 27 25q21 0 42 -26z" />
    <glyph glyph-name="uacute" unicode="&#xfa;" horiz-adv-x="444" 
d="M272 -4l-9 49q-51 -54 -109 -54q-103 0 -103 108v255h-41v21q91 0 147 7v-303q0 -46 43 -46q40 0 58 48q13 33 13 80v193h-49v21q56 0 78 1q40 2 77 6v-359h42v-21q-57 0 -147 -6zM224 414h-19l88 111q21 26 42 26q27 0 27 -25q0 -20 -25 -37z" />
    <glyph glyph-name="ucircumflex" unicode="&#xfb;" horiz-adv-x="444" 
d="M272 -4l-9 49q-51 -54 -109 -54q-103 0 -103 108v255h-41v21q91 0 147 7v-303q0 -46 43 -46q26 0 45 24q26 33 26 104v193h-49v21q52 0 78 1q42 2 77 6v-359h42v-21q-57 0 -147 -6zM125 439h-42l104 169h70l105 -169h-43l-97 108z" />
    <glyph glyph-name="udieresis" unicode="&#xfc;" horiz-adv-x="444" 
d="M272 -4l-9 49q-51 -54 -109 -54q-103 0 -103 108v255h-41v21q91 0 147 7v-303q0 -46 43 -46q26 0 45 24q26 33 26 104v193h-49v21q52 0 78 1q42 2 77 6v-359h42v-21q-57 0 -147 -6zM310 559q22 0 37.5 -15.5t15.5 -37.5t-15.5 -37.5t-38.5 -15.5q-22 0 -37 15.5t-15 37.5
t15.5 37.5t37.5 15.5zM134 559q22 0 37.5 -15.5t15.5 -37.5t-15.5 -37.5t-38.5 -15.5q-22 0 -37 15.5t-15 37.5t15.5 37.5t37.5 15.5z" />
    <glyph glyph-name="yacute" unicode="&#xfd;" 
d="M183 354h-37l89 -219l76 219h-38v21h95v-21h-29l-154 -429q-25 -69 -41 -96q-34 -56 -80 -56q-24 0 -39 16.5t-15 40.5q0 47 49 47q16 0 32 -15t21 -15q26 0 70 148l-139 359h-27v21h167v-21zM238 384h-19l88 111q21 26 42 26q27 0 27 -25q0 -20 -25 -37z" />
    <glyph glyph-name="thorn" unicode="&#xfe;" horiz-adv-x="444" 
d="M296 159v90q0 72 -16 96q-10 15 -36 15t-47.5 -25t-27.5 -67q-3 -20 -3 -83q0 -81 8.5 -104.5t27.5 -41.5q22 -21 44 -21q34 0 44 38q6 24 6 103zM220 -206v-21h-204v21h44v835h-44v21q20 0 69 3q67 3 81 4v-331h2q40 58 96 58q65 0 105 -54.5t40 -134.5
q0 -90 -42.5 -147t-108.5 -57q-28 0 -53 17t-37 43h-2v-257h54z" />
    <glyph glyph-name="ydieresis" unicode="&#xff;" 
d="M183 354h-37l89 -219l76 219h-38v21h95v-21h-29l-154 -429q-31 -87 -57.5 -119.5t-63.5 -32.5q-23 0 -38.5 16.5t-15.5 40.5q0 47 49 47q17 0 31.5 -15t21.5 -15q26 0 70 148l-139 359h-27v21h167v-21zM288 559q22 0 37.5 -15.5t15.5 -37.5t-15.5 -37.5t-38.5 -15.5
q-22 0 -37 15.5t-15 37.5t15.5 37.5t37.5 15.5zM112 559q22 0 37.5 -15.5t15.5 -37.5t-15.5 -37.5t-38.5 -15.5q-22 0 -37 15.5t-15 37.5t15.5 37.5t37.5 15.5z" />
    <glyph glyph-name="glyph271" unicode="&#x102;" horiz-adv-x="500" 
d="M481 0h-217v24h47l-46 170h-130l-45 -170h60v-24h-136v24h47l174 624h39l170 -624h37v-24zM258 221l-56 208h-2l-57 -208h115zM154 786h24q11 -70 77 -70q60 0 76 70h25q-9 -118 -104 -118q-93 0 -98 118z" />
    <glyph glyph-name="glyph272" unicode="&#x103;" 
d="M358 46l10 -13q-25 -42 -81 -42q-48 0 -64 50q-42 -50 -116 -50q-40 0 -65.5 21.5t-25.5 60.5q0 73 69 106q42 20 133 32v78q0 38 -6 51q-10 22 -43 22q-45 0 -45 -20q0 -1 10.5 -18.5t10.5 -31.5q0 -18 -13.5 -33t-31.5 -15q-54 0 -54 51q0 47 48 71q37 18 90 18
q54 0 89 -18q45 -23 45 -72v-236q0 -24 14 -24q7 0 26 12zM119 109q0 -74 44 -74q45 0 54 60q3 15 1 95q-99 -2 -99 -81zM86 532h24q11 -70 77 -70q60 0 76 70h25q-9 -118 -104 -118q-93 0 -98 118z" />
    <glyph glyph-name="Cacute" unicode="&#x106;" horiz-adv-x="711" 
d="M401 -6l-29 30q-55 -37 -115 -37q-88 0 -153 73q-81 91 -81 262q0 141 70 238.5t170 97.5q64 0 112 -53l24 43h18v-182h-20q-15 74 -37 111q-35 57 -95 57q-88 0 -88 -169v-290q0 -164 100 -164q47 0 82 52q33 49 42 119h21v-188h-21zM273 694h-46l122 138q34 38 52 38
q35 0 35 -36q0 -23 -32 -46z" />
    <glyph glyph-name="cacute" unicode="&#x107;" horiz-adv-x="441" 
d="M291 111h26q-27 -120 -134 -120q-79 0 -125 64q-42 58 -42 140q0 70 47 127q52 62 126 62q54 0 88 -29q31 -27 31 -68q0 -25 -14 -42.5t-39 -17.5q-51 0 -51 48q0 29 22 42.5t22 19.5q0 12 -19 20t-36 8q-63 0 -63 -89q0 -17 -1 -46t-1 -42q0 -12 1 -36t1 -35
q0 -42 17 -69q19 -30 54 -30q72 0 90 93zM74 439h-46l122 138q34 38 52 38q35 0 35 -36q0 -23 -32 -46z" />
    <glyph glyph-name="Ccaron" unicode="&#x10c;" horiz-adv-x="711" 
d="M401 -6l-29 30q-55 -37 -115 -37q-88 0 -153 73q-81 91 -81 262q0 141 70 238.5t170 97.5q64 0 112 -53l24 43h18v-182h-20q-15 74 -37 111q-35 57 -95 57q-88 0 -88 -169v-290q0 -164 100 -164q47 0 82 52q33 49 42 119h21v-188h-21zM288 754l97 109h43l-105 -169h-70
l-104 169h42z" />
    <glyph glyph-name="ccaron" unicode="&#x10d;" horiz-adv-x="441" 
d="M291 111h26q-27 -120 -134 -120q-79 0 -125 64q-42 58 -42 140q0 70 47 127q52 62 126 62q54 0 88 -29q31 -27 31 -68q0 -25 -14 -42.5t-39 -17.5q-51 0 -51 48q0 29 22 42.5t22 19.5q0 12 -19 20t-36 8q-63 0 -63 -89q0 -17 -1 -46t-1 -42q0 -12 1 -36t1 -35
q0 -42 17 -69q19 -30 54 -30q72 0 90 93zM89 499l97 109h43l-105 -169h-70l-104 169h42z" />
    <glyph glyph-name="Dslash" unicode="&#x110;" horiz-adv-x="500" 
d="M198 624v-271h75v-27h-75v-302h11q85 0 108 70q15 47 15 228q0 183 -17 235q-22 67 -100 67h-17zM64 624h-44v24h194q264 0 264 -337q0 -131 -57 -215q-67 -96 -192 -96h-209v24h44v302h-75v27h75v271z" />
    <glyph glyph-name="dcroat" unicode="&#x111;" horiz-adv-x="444" 
d="M271 144v62q0 154 -86 154q-44 0 -44 -106v-156q0 -83 46 -83q45 0 67 45q17 34 17 84zM377 463h41v-30h-41v-412h44v-21q-44 0 -149 -6v54h-2q-26 -57 -95 -57q-75 0 -114 61q-33 52 -33 131q0 82 34 136q40 65 117 65q58 0 90 -58h2v107h-92v30h92v166h-48v21
q-17 0 154 7v-194z" />
    <glyph glyph-name="Gbreve" unicode="&#x11e;" horiz-adv-x="767" 
d="M440 462h-27q-38 170 -135 170q-65 0 -87 -60q-20 -53 -20 -196v-202q0 -163 75 -163q42 0 59 30q14 26 14 92v124h-46v24h220v-24h-31v-30q0 -95 -40 -157q-54 -83 -169 -83q-127 0 -188 124q-42 84 -42 186q0 198 88 293q63 68 147 68q65 0 132 -53l23 40h27v-183z
M180 842h30q12 -87 96 -87q46 0 69 27q17 19 26 60h32q-13 -148 -130 -148q-58 0 -90 42q-30 39 -33 106z" />
    <glyph glyph-name="gbreve" unicode="&#x11f;" horiz-adv-x="492" 
d="M255 -45h-135q-19 -33 -19 -58q0 -96 100 -96q52 0 92 31.5t40 76.5q0 25 -13 34q-16 12 -65 12zM129 242q0 -51 5 -66q10 -34 47 -34q36 0 44 50q1 8 1 80q0 58 -10 76q-9 15 -34 15q-35 0 -44 -22.5t-9 -98.5zM169 121h-30q-69 0 -69 -43q0 -33 58 -33q36 0 116 2
q121 3 121 -102q0 -68 -44 -116q-51 -56 -142 -56q-81 0 -120 38q-27 26 -27 55q0 33 17 54q15 16 56 39q-74 21 -74 97q0 32 26 55q23 21 54 27v2q-36 13 -57.5 44.5t-21.5 71.5q0 39 30 76q41 52 120 52q48 0 95 -32q21 45 57 45q41 0 41 -35q0 -30 -31 -30q-24 0 -34 21
q-13 -5 -22 -14q38 -32 38 -89q0 -53 -33 -87q-40 -42 -124 -42zM-20 587h30q12 -87 96 -87q46 0 69 27q17 19 26 60h32q-13 -148 -130 -148q-58 0 -90 42q-30 39 -33 106z" />
    <glyph glyph-name="glyph273" unicode="&#x128;" horiz-adv-x="278" 
d="M206 24h52v-24h-238v24h52v600h-52v24h238v-24h-52v-600zM248 776h24q-46 -89 -102 -88q-21 0 -51 22.5t-39 22.5q-28 0 -48 -45h-24q40 88 102 87q11 0 23 -9t23 -17q30 -20 43 -20q22 0 49 47z" />
    <glyph glyph-name="glyph274" unicode="&#x129;" horiz-adv-x="222" 
d="M11 21h44v333h-41v21q91 0 147 7v-361h39v-21h-189v21zM217 502h24q-46 -89 -102 -88q-21 0 -51 22.5t-39 22.5q-28 0 -48 -45h-24q40 88 102 87q11 0 23 -9t23 -17q30 -20 43 -20q22 0 49 47z" />
    <glyph glyph-name="Idotaccent" unicode="&#x130;" horiz-adv-x="429" 
d="M206 24h52v-24h-238v24h52v600h-52v24h238v-24h-52v-600zM138 814q22 0 37.5 -15.5t15.5 -37.5t-15.5 -37.5t-38.5 -15.5q-22 0 -37 15.5t-15 37.5t15.5 37.5t37.5 15.5z" />
    <glyph glyph-name="dotlessi" unicode="&#x131;" horiz-adv-x="222" 
d="M11 21h44v333h-41v21q91 0 147 7v-361h39v-21h-189v21z" />
    <glyph glyph-name="Lslash" unicode="&#x141;" horiz-adv-x="444" 
d="M206 624v-227l129 92v-45l-129 -92v-328q56 0 75 3q41 6 69 28q41 33 59 163h24l-6 -218h-401v24h46v230l-89 -65v45l89 65v325h-46v24h233v-24h-53z" />
    <glyph glyph-name="lslash" unicode="&#x142;" horiz-adv-x="222" 
d="M57 301v328h-42v21q18 0 68 3q64 3 80 4v-256l83 80v-48l-83 -80v-332h42v-21h-187v21h39v232l-73 -70v48z" />
    <glyph glyph-name="OE" unicode="&#x152;" horiz-adv-x="722" 
d="M350 160v310q0 153 -86 153q-61 0 -82 -54q-13 -32 -13 -105v-308q0 -130 100 -130q81 0 81 134zM477 24h43q87 0 126 59q28 41 38 128h26l-9 -211h-374q-92 0 -120 8q-76 21 -128 95q-62 88 -62 222q0 136 71.5 229.5t171.5 93.5h429l6 -165h-23q-24 84 -58 114
q-32 27 -96 27h-41v-273q50 0 70 30q17 25 19 85h25v-269h-22q-9 72 -24 96q-19 32 -68 32v-301z" />
    <glyph glyph-name="oe" unicode="&#x153;" horiz-adv-x="611" 
d="M363 217v-92q0 -107 72 -107q102 0 121 100h24q-12 -59 -52 -93t-99 -34q-78 1 -118 52q-44 -51 -117 -52q-82 -2 -130 60q-43 55 -43 135q0 81 43 137q47 61 130 61q70 -7 115 -56q50 50 112 56q68 0 111.5 -49.5t43.5 -117.5h-213zM136 282v-180q0 -49 13 -70.5
t45 -21.5q38 0 51 29q7 17 7 62v181q0 83 -58 83t-58 -83zM363 241h104v56q0 42 -17 57q-10 9 -35 9q-52 0 -52 -69v-53z" />
    <glyph glyph-name="Scedilla" unicode="&#x15e;" horiz-adv-x="656" 
d="M23 189h24q6 -66 40 -117q41 -61 102 -61q44 0 71.5 28t27.5 72q0 63 -69 115q-63 46 -127 92q-69 63 -69 155q0 90 44 139q41 46 112 46q53 0 114 -41l25 31h20v-170h-22q-35 156 -138 156q-95 0 -95 -90q0 -51 72 -99q119 -79 134 -94q72 -69 72 -172q0 -68 -39 -123
q-48 -69 -136 -69q-60 0 -113 45l-34 -32h-16v189zM89 -97l42 97h34l-28 -66q19 7 35 7q83 0 83 -75q0 -40 -38 -63q-33 -19 -79 -19q-53 0 -92 18l11 27q23 -13 57 -13q74 0 74 43q0 48 -53 48q-8 0 -38 -9z" />
    <glyph glyph-name="scedilla" unicode="&#x15f;" horiz-adv-x="383" 
d="M35 -9h-21v141h24q12 -120 94 -120q69 0 69 63q0 29 -49 53q-81 40 -90 47q-49 35 -49 92q0 52 27.5 84.5t74.5 32.5q27 0 50 -12t28 -13q12 0 22 25h19v-118h-23q-6 43 -31.5 70t-62.5 27q-59 0 -59 -47q0 -34 50 -58l92 -44q50 -34 50 -91t-27 -93q-29 -39 -84 -39
q-28 0 -57 11t-33 11q-11 0 -14 -22zM-8 -97l42 97h34l-28 -66q19 7 35 7q83 0 83 -75q0 -40 -38 -63q-33 -19 -79 -19q-53 0 -92 18l11 27q23 -13 57 -13q74 0 74 43q0 48 -53 48q-8 0 -38 -9z" />
    <glyph glyph-name="Scaron" unicode="&#x160;" 
d="M23 189h24q6 -66 40 -117q41 -61 102 -61q44 0 71.5 28t27.5 72q0 63 -69 115q-63 46 -127 92q-69 63 -69 155q0 90 44 139q41 46 112 46q53 0 114 -41l25 31h20v-170h-22q-35 156 -138 156q-95 0 -95 -90q0 -51 72 -99q119 -79 134 -94q72 -69 72 -172q0 -68 -39 -123
q-48 -69 -136 -69q-60 0 -113 45l-34 -32h-16v189zM195 752l97 109h43l-105 -169h-70l-104 169h42z" />
    <glyph glyph-name="scaron" unicode="&#x161;" horiz-adv-x="278" 
d="M35 -9h-21v141h24q12 -120 94 -120q69 0 69 63q0 29 -49 53q-81 40 -90 47q-49 35 -49 92q0 52 27.5 84.5t74.5 32.5q27 0 50 -12t28 -13q12 0 22 25h19v-118h-23q-6 43 -31.5 70t-62.5 27q-59 0 -59 -47q0 -34 50 -58l92 -44q50 -34 50 -91t-27 -93q-29 -39 -84 -39
q-28 0 -57 11t-33 11q-11 0 -14 -22zM139 499l97 109h43l-105 -169h-70l-104 169h42z" />
    <glyph glyph-name="ch903" unicode="&#x168;" horiz-adv-x="500" 
d="M250 624h-48v-493q0 -112 91 -112q115 0 115 152v453h-49v24h128v-24h-49v-445q0 -82 -25 -124q-40 -68 -151 -68q-85 0 -137 38q-57 43 -57 125v474h-46v24h228v-24zM413 766h24q-46 -89 -102 -88q-21 0 -51 22.5t-39 22.5q-28 0 -48 -45h-24q40 88 102 87q11 0 23 -9
t23 -17q30 -20 43 -20q22 0 49 47z" />
    <glyph glyph-name="ch904" unicode="&#x169;" horiz-adv-x="444" 
d="M272 -4l-9 49q-51 -54 -109 -54q-103 0 -103 108v255h-41v21q91 0 147 7v-303q0 -46 43 -46q40 0 58 48q13 33 13 80v193h-49v21q56 0 78 1q40 2 77 6v-359h42v-21q-57 0 -147 -6zM323 502h24q-46 -89 -102 -88q-21 0 -51 22.5t-39 22.5q-28 0 -48 -45h-24q40 88 102 87
q11 0 23 -9t23 -17q30 -20 43 -20q22 0 49 47z" />
    <glyph glyph-name="Ydieresis" unicode="&#x178;" horiz-adv-x="500" 
d="M318 24h59v-24h-250v24h57v266l-135 334h-35v24h211v-24h-42l113 -276l113 276h-46v24h116v-24h-38l-123 -303v-297zM348 812q22 0 37.5 -15.5t15.5 -37.5t-15.5 -37.5t-38.5 -15.5q-22 0 -37 15.5t-15 37.5t15.5 37.5t37.5 15.5zM172 812q22 0 37.5 -15.5t15.5 -37.5
t-15.5 -37.5t-38.5 -15.5q-22 0 -37 15.5t-15 37.5t15.5 37.5t37.5 15.5z" />
    <glyph glyph-name="Zcaron" unicode="&#x17d;" horiz-adv-x="444" 
d="M66 478h-24l4 170h371v-25l-269 -599h89q139 0 155 187h25l-7 -211h-398v32l268 592h-84q-103 0 -130 -146zM222 752l97 109h43l-105 -169h-70l-104 169h42z" />
    <glyph glyph-name="zcaron" unicode="&#x17e;" horiz-adv-x="333" 
d="M299 141l-2 -141h-281v32l173 322h-44q-41 0 -64 -30q-21 -26 -34 -87h-22l3 138h273v-24l-174 -330h46q45 0 65.5 25t39.5 95h21zM167 499l97 109h43l-105 -169h-70l-104 169h42z" />
    <glyph glyph-name="florin" unicode="&#x192;" 
d="M345 351v-26h-103v-33q0 -315 -31 -416q-23 -74 -44 -104q-33 -45 -89 -45q-83 0 -83 75q0 20 12 35.5t32 15.5q22 0 35 -12.5t13 -23.5q0 -22 -14 -38t-14 -21q0 -11 19 -11q23 0 38.5 31.5t15.5 74.5q0 38 2 133q1 113 2 200l1 139h-100v26h101q-1 111 33 193
q45 110 140 110q33 0 56.5 -20.5t23.5 -53.5q0 -23 -12.5 -38.5t-34.5 -15.5q-50 0 -50 40q0 20 16 34.5t16 21.5q0 11 -20 11q-64 0 -64 -148v-134h103z" />
    <glyph glyph-name="glyph277" unicode="&#x1a0;" horiz-adv-x="556" 
d="M371 165v289q0 84 -10 117q-20 63 -83 63t-83 -63q-10 -33 -10 -117v-289q0 -154 93 -154t93 154zM381 629q67 17 79 45q-7 -2 -13 -2q-16 0 -27.5 10t-11.5 25q0 10 5 18q14 24 37 24q18 0 30.5 -12.5t12.5 -30.5q0 -16 -9 -31q-25 -43 -87 -57q66 -47 99 -132
q29 -74 29 -164q0 -125 -60 -222q-69 -113 -187 -113t-187 113q-60 97 -60 222q0 126 59 222q70 114 188 114q56 0 103 -29z" />
    <glyph glyph-name="glyph278" unicode="&#x1a1;" 
d="M136 282v-180q0 -92 58 -92q38 0 51 29q7 16 7 62v181q0 83 -58 83t-58 -83zM283 360q56 6 71 27q-20 -2 -30 11q-11 8 -11 21q0 14 12 25.5t26 11.5q15 0 26 -11t11 -26q0 -18 -13 -34q-26 -32 -75 -37q67 -57 67 -161q0 -83 -44 -137q-48 -59 -129 -59t-129 59
q-44 54 -44 137t44 138q48 59 129 59q51 0 89 -24z" />
    <glyph glyph-name="glyph279" unicode="&#x1af;" horiz-adv-x="500" 
d="M438 618v-439q0 -82 -25 -124q-40 -68 -151 -68q-85 0 -137 38q-57 43 -57 125v474h-46v24h228v-24h-48v-493q0 -112 91 -112q115 0 115 152v453h-49v24h114q20 11 27 26q-7 -2 -13 -2q-16 0 -27.5 10t-11.5 25q0 10 5 18q14 24 37 24q18 0 30.5 -12.5t12.5 -30.5
q0 -16 -9 -31q-25 -43 -86 -57z" />
    <glyph glyph-name="glyph280" unicode="&#x1b0;" horiz-adv-x="444" 
d="M377 363q35 7 47 24q-20 -2 -30 11q-11 8 -11 21q0 14 12 25.5t26 11.5q15 0 26 -11t11 -26q0 -18 -13 -34q-26 -31 -68 -36v-326h42v-21q-57 0 -147 -6l-9 49q-51 -54 -109 -54q-103 0 -103 108v255h-41v21q91 0 147 7v-303q0 -46 43 -46q40 0 58 48q13 33 13 80v193
h-49v21q52 0 78 1t77 -13z" />
    <glyph glyph-name="circumflex" unicode="&#x2c6;" horiz-adv-x="222" 
d="M14 439h-42l104 169h70l105 -169h-43l-97 108z" />
    <glyph glyph-name="caron" unicode="&#x2c7;" horiz-adv-x="222" 
d="M111 499l97 109h43l-105 -169h-70l-104 169h42z" />
    <glyph glyph-name="breve" unicode="&#x2d8;" horiz-adv-x="222" 
d="M-16 587h30q12 -87 96 -87q46 0 69 27q17 19 26 60h32q-13 -148 -130 -148q-58 0 -90 42q-30 39 -33 106z" />
    <glyph glyph-name="dotaccent" unicode="&#x2d9;" horiz-adv-x="222" 
d="M111 559q22 0 37.5 -15.5t15.5 -37.5t-15.5 -37.5t-38.5 -15.5q-22 0 -37 15.5t-15 37.5t15.5 37.5t37.5 15.5z" />
    <glyph glyph-name="ring" unicode="&#x2da;" horiz-adv-x="222" 
d="M102 586q-23 0 -39 -16.5t-16 -39.5t16 -39t39 -16t39.5 16t16.5 39t-16.5 39.5t-39.5 16.5zM102 622q38 0 65 -27t27 -65t-27 -64.5t-65 -26.5t-64.5 26.5t-26.5 64.5t26.5 65t64.5 27z" />
    <glyph glyph-name="ogonek" unicode="&#x2db;" horiz-adv-x="222" 
d="M95 0h47q-32 -30 -32 -66q0 -42 36 -42q29 0 40 45h33q-18 -100 -94 -100q-33 0 -57.5 20t-24.5 53q0 45 52 90z" />
    <glyph glyph-name="tilde" unicode="&#x2dc;" horiz-adv-x="222" 
d="M230 576v0h29q-25 -110 -96 -110q-27 0 -68.5 23.5t-55.5 23.5q-36 0 -46 -50h-29q20 108 96 108q22 0 64 -24t60 -24q28 0 46 53z" />
    <glyph glyph-name="hungarumlaut" unicode="&#x2dd;" horiz-adv-x="222" 
d="M16 439h-46l122 138q34 38 52 38q35 0 35 -36q0 -23 -32 -46zM176 439h-46l122 138q34 38 52 38q35 0 35 -36q0 -23 -32 -46z" />
    <glyph glyph-name="glyph281" unicode="&#x1ea0;" horiz-adv-x="500" 
d="M258 221l-56 208h-2l-57 -208h115zM444 24h37v-24h-217v24h47l-46 170h-130l-45 -170h60v-24h-136v24h47l174 624h39zM262 -55q0 -23 -16 -39t-39 -16t-39 16t-16 39t16 39t39 16t39 -16t16 -39z" />
    <glyph glyph-name="glyph282" unicode="&#x1ea1;" 
d="M358 46l10 -13q-25 -42 -81 -42q-48 0 -64 50q-42 -50 -116 -50q-40 0 -65.5 21.5t-25.5 60.5q0 73 69 106q42 20 133 32v78q0 38 -6 51q-10 22 -43 22q-45 0 -45 -20q0 -1 10.5 -18.5t10.5 -31.5q0 -18 -13.5 -33t-31.5 -15q-54 0 -54 51q0 47 48 71q37 18 90 18
q54 0 89 -18q45 -23 45 -72v-236q0 -24 14 -24q7 0 26 12zM119 109q0 -74 44 -74q45 0 54 60q3 15 1 95q-99 -2 -99 -81zM239 -93q0 -23 -16 -39t-39 -16t-39 16t-16 39t16 39t39 16t39 -16t16 -39z" />
    <glyph glyph-name="glyph283" unicode="&#x1ea2;" horiz-adv-x="500" 
d="M258 221l-56 208h-2l-57 -208h115zM444 24h37v-24h-217v24h47l-46 170h-130l-45 -170h60v-24h-136v24h47l174 624h39zM258 678h-9q-3 18 -3 35q0 29 12 46l36 38q13 14 13 29q0 36 -38 36q-34 0 -34 -18q0 -3 6 -3q23 0 23 -24q0 -20 -24 -20q-25 0 -25 26q0 47 54 47
q28 0 45 -18.5t17 -46.5q0 -45 -32 -70q-42 -33 -42 -47q0 -2 1 -5v-5z" />
    <glyph glyph-name="glyph284" unicode="&#x1ea3;" 
d="M358 46l10 -13q-25 -42 -81 -42q-48 0 -64 50q-42 -50 -116 -50q-40 0 -65.5 21.5t-25.5 60.5q0 73 69 106q42 20 133 32v78q0 38 -6 51q-10 22 -43 22q-45 0 -45 -20q0 -1 10.5 -18.5t10.5 -31.5q0 -18 -13.5 -33t-31.5 -15q-54 0 -54 51q0 47 48 71q37 18 90 18
q54 0 89 -18q45 -23 45 -72v-236q0 -24 14 -24q7 0 26 12zM119 109q0 -74 44 -74q45 0 54 60q3 15 1 95q-99 -2 -99 -81zM188 424h-9q-3 18 -3 35q0 29 12 46l36 38q13 14 13 29q0 36 -38 36q-34 0 -34 -18q0 -3 6 -3q23 0 23 -24q0 -20 -24 -20q-25 0 -25 26q0 47 54 47
q28 0 45 -18.5t17 -46.5q0 -45 -32 -70q-42 -33 -42 -47q0 -2 1 -5v-5z" />
    <glyph glyph-name="glyph285" unicode="&#x1ea4;" horiz-adv-x="500" 
d="M258 221l-56 208h-2l-57 -208h115zM444 24h37v-24h-217v24h47l-46 170h-130l-45 -170h60v-24h-136v24h47l174 624h39zM184 648h-30l75 121h50l76 -121h-31l-70 77zM365 725h-19l88 111q21 26 42 26q27 0 27 -25q0 -20 -25 -37z" />
    <glyph glyph-name="glyph286" unicode="&#x1ea5;" 
d="M358 46l10 -13q-25 -42 -81 -42q-48 0 -64 50q-42 -50 -116 -50q-40 0 -65.5 21.5t-25.5 60.5q0 73 69 106q42 20 133 32v78q0 38 -6 51q-10 22 -43 22q-45 0 -45 -20q0 -1 10.5 -18.5t10.5 -31.5q0 -18 -13.5 -33t-31.5 -15q-54 0 -54 51q0 47 48 71q37 18 90 18
q54 0 89 -18q45 -23 45 -72v-236q0 -24 14 -24q7 0 26 12zM119 109q0 -74 44 -74q45 0 54 60q3 15 1 95q-99 -2 -99 -81zM114 395h-30l75 121h50l76 -121h-31l-70 77zM295 472h-19l88 111q21 26 42 26q27 0 27 -25q0 -20 -25 -37z" />
    <glyph glyph-name="glyph287" unicode="&#x1ea6;" horiz-adv-x="500" 
d="M258 221l-56 208h-2l-57 -208h115zM444 24h37v-24h-217v24h47l-46 170h-130l-45 -170h60v-24h-136v24h47l174 624h39zM184 648h-30l75 121h50l76 -121h-31l-70 77zM163 725h-19l-113 75q-25 17 -25 37q0 25 27 25q21 0 42 -26z" />
    <glyph glyph-name="glyph288" unicode="&#x1ea7;" 
d="M358 46l10 -13q-25 -42 -81 -42q-48 0 -64 50q-42 -50 -116 -50q-40 0 -65.5 21.5t-25.5 60.5q0 73 69 106q42 20 133 32v78q0 38 -6 51q-10 22 -43 22q-45 0 -45 -20q0 -1 10.5 -18.5t10.5 -31.5q0 -18 -13.5 -33t-31.5 -15q-54 0 -54 51q0 47 48 71q37 18 90 18
q54 0 89 -18q45 -23 45 -72v-236q0 -24 14 -24q7 0 26 12zM119 109q0 -74 44 -74q45 0 54 60q3 15 1 95q-99 -2 -99 -81zM114 395h-30l75 121h50l76 -121h-31l-70 77zM93 472h-19l-113 75q-25 17 -25 37q0 25 27 25q21 0 42 -26z" />
    <glyph glyph-name="glyph289" unicode="&#x1ea8;" horiz-adv-x="500" 
d="M258 221l-56 208h-2l-57 -208h115zM444 24h37v-24h-217v24h47l-46 170h-130l-45 -170h60v-24h-136v24h47l174 624h39zM184 648h-30l75 121h50l76 -121h-31l-70 77zM359 715h-9q-3 18 -3 35q0 29 12 46l36 38q13 14 13 29q0 36 -38 36q-34 0 -34 -18q0 -3 6 -3
q23 0 23 -24q0 -20 -24 -20q-25 0 -25 26q0 47 54 47q28 0 45 -18.5t17 -46.5q0 -45 -32 -70q-42 -33 -42 -47q0 -2 1 -5v-5z" />
    <glyph glyph-name="glyph290" unicode="&#x1ea9;" 
d="M358 46l10 -13q-25 -42 -81 -42q-48 0 -64 50q-42 -50 -116 -50q-40 0 -65.5 21.5t-25.5 60.5q0 73 69 106q42 20 133 32v78q0 38 -6 51q-10 22 -43 22q-45 0 -45 -20q0 -1 10.5 -18.5t10.5 -31.5q0 -18 -13.5 -33t-31.5 -15q-54 0 -54 51q0 47 48 71q37 18 90 18
q54 0 89 -18q45 -23 45 -72v-236q0 -24 14 -24q7 0 26 12zM119 109q0 -74 44 -74q45 0 54 60q3 15 1 95q-99 -2 -99 -81zM114 395h-30l75 121h50l76 -121h-31l-70 77zM289 462h-9q-3 18 -3 35q0 29 12 46l36 38q13 14 13 29q0 36 -38 36q-34 0 -34 -18q0 -3 6 -3
q23 0 23 -24q0 -20 -24 -20q-25 0 -25 26q0 47 54 47q28 0 45 -18.5t17 -46.5q0 -45 -32 -70q-42 -33 -42 -47q0 -2 1 -5v-5z" />
    <glyph glyph-name="glyph291" unicode="&#x1eaa;" horiz-adv-x="500" 
d="M258 221l-56 208h-2l-57 -208h115zM444 24h37v-24h-217v24h47l-46 170h-130l-45 -170h60v-24h-136v24h47l174 624h39zM184 648h-30l75 121h50l76 -121h-31l-70 77zM363 886h24q-46 -89 -102 -88q-21 0 -51 22.5t-39 22.5q-28 0 -48 -45h-24q40 88 102 87q11 0 23 -9
t23 -17q30 -20 43 -20q22 0 49 47z" />
    <glyph glyph-name="glyph292" unicode="&#x1eab;" 
d="M358 46l10 -13q-25 -42 -81 -42q-48 0 -64 50q-42 -50 -116 -50q-40 0 -65.5 21.5t-25.5 60.5q0 73 69 106q42 20 133 32v78q0 38 -6 51q-10 22 -43 22q-45 0 -45 -20q0 -1 10.5 -18.5t10.5 -31.5q0 -18 -13.5 -33t-31.5 -15q-54 0 -54 51q0 47 48 71q37 18 90 18
q54 0 89 -18q45 -23 45 -72v-236q0 -24 14 -24q7 0 26 12zM119 109q0 -74 44 -74q45 0 54 60q3 15 1 95q-99 -2 -99 -81zM114 395h-30l75 121h50l76 -121h-31l-70 77zM293 633h24q-46 -89 -102 -88q-21 0 -51 22.5t-39 22.5q-28 0 -48 -45h-24q40 88 102 87q11 0 23 -9
t23 -17q30 -20 43 -20q22 0 49 47z" />
    <glyph glyph-name="glyph293" unicode="&#x1eac;" horiz-adv-x="500" 
d="M258 221l-56 208h-2l-57 -208h115zM444 24h37v-24h-217v24h47l-46 170h-130l-45 -170h60v-24h-136v24h47l174 624h39zM184 648h-30l75 121h50l76 -121h-31l-70 77zM262 -55q0 -23 -16 -39t-39 -16t-39 16t-16 39t16 39t39 16t39 -16t16 -39z" />
    <glyph glyph-name="glyph294" unicode="&#x1ead;" 
d="M358 46l10 -13q-25 -42 -81 -42q-48 0 -64 50q-42 -50 -116 -50q-40 0 -65.5 21.5t-25.5 60.5q0 73 69 106q42 20 133 32v78q0 38 -6 51q-10 22 -43 22q-45 0 -45 -20q0 -1 10.5 -18.5t10.5 -31.5q0 -18 -13.5 -33t-31.5 -15q-54 0 -54 51q0 47 48 71q37 18 90 18
q54 0 89 -18q45 -23 45 -72v-236q0 -24 14 -24q7 0 26 12zM119 109q0 -74 44 -74q45 0 54 60q3 15 1 95q-99 -2 -99 -81zM114 395h-30l75 121h50l76 -121h-31l-70 77zM239 -93q0 -23 -16 -39t-39 -16t-39 16t-16 39t16 39t39 16t39 -16t16 -39z" />
    <glyph glyph-name="glyph295" unicode="&#x1eae;" horiz-adv-x="500" 
d="M481 0h-217v24h47l-46 170h-130l-45 -170h60v-24h-136v24h47l174 624h39l170 -624h37v-24zM258 221l-56 208h-2l-57 -208h115zM154 786h24q11 -70 77 -70q60 0 76 70h25q-9 -118 -104 -118q-93 0 -98 118zM264 786h-19l88 111q21 26 42 26q27 0 27 -25q0 -20 -25 -37z
" />
    <glyph glyph-name="glyph296" unicode="&#x1eaf;" 
d="M358 46l10 -13q-25 -42 -81 -42q-48 0 -64 50q-42 -50 -116 -50q-40 0 -65.5 21.5t-25.5 60.5q0 73 69 106q42 20 133 32v78q0 38 -6 51q-10 22 -43 22q-45 0 -45 -20q0 -1 10.5 -18.5t10.5 -31.5q0 -18 -13.5 -33t-31.5 -15q-54 0 -54 51q0 47 48 71q37 18 90 18
q54 0 89 -18q45 -23 45 -72v-236q0 -24 14 -24q7 0 26 12zM119 109q0 -74 44 -74q45 0 54 60q3 15 1 95q-99 -2 -99 -81zM86 532h24q11 -70 77 -70q60 0 76 70h25q-9 -118 -104 -118q-93 0 -98 118zM196 532h-19l88 111q21 26 42 26q27 0 27 -25q0 -20 -25 -37z" />
    <glyph glyph-name="glyph297" unicode="&#x1eb0;" horiz-adv-x="500" 
d="M481 0h-217v24h47l-46 170h-130l-45 -170h60v-24h-136v24h47l174 624h39l170 -624h37v-24zM258 221l-56 208h-2l-57 -208h115zM154 786h24q11 -70 77 -70q60 0 76 70h25q-9 -118 -104 -118q-93 0 -98 118zM263 786h-19l-113 75q-25 17 -25 37q0 25 27 25q21 0 42 -26z
" />
    <glyph glyph-name="glyph298" unicode="&#x1eb1;" 
d="M358 46l10 -13q-25 -42 -81 -42q-48 0 -64 50q-42 -50 -116 -50q-40 0 -65.5 21.5t-25.5 60.5q0 73 69 106q42 20 133 32v78q0 38 -6 51q-10 22 -43 22q-45 0 -45 -20q0 -1 10.5 -18.5t10.5 -31.5q0 -18 -13.5 -33t-31.5 -15q-54 0 -54 51q0 47 48 71q37 18 90 18
q54 0 89 -18q45 -23 45 -72v-236q0 -24 14 -24q7 0 26 12zM119 109q0 -74 44 -74q45 0 54 60q3 15 1 95q-99 -2 -99 -81zM86 532h24q11 -70 77 -70q60 0 76 70h25q-9 -118 -104 -118q-93 0 -98 118zM195 532h-19l-113 75q-25 17 -25 37q0 25 27 25q21 0 42 -26z" />
    <glyph glyph-name="glyph299" unicode="&#x1eb2;" horiz-adv-x="500" 
d="M481 0h-217v24h47l-46 170h-130l-45 -170h60v-24h-136v24h47l174 624h39l170 -624h37v-24zM258 221l-56 208h-2l-57 -208h115zM154 786h24q11 -70 77 -70q60 0 76 70h25q-9 -118 -104 -118q-93 0 -98 118zM258 776h-9q-3 18 -3 35q0 29 12 46l36 38q13 14 13 29
q0 36 -38 36q-34 0 -34 -18q0 -3 6 -3q23 0 23 -24q0 -20 -24 -20q-25 0 -25 26q0 47 54 47q28 0 45 -18.5t17 -46.5q0 -45 -32 -70q-42 -33 -42 -47q0 -2 1 -5v-5z" />
    <glyph glyph-name="glyph300" unicode="&#x1eb3;" 
d="M358 46l10 -13q-25 -42 -81 -42q-48 0 -64 50q-42 -50 -116 -50q-40 0 -65.5 21.5t-25.5 60.5q0 73 69 106q42 20 133 32v78q0 38 -6 51q-10 22 -43 22q-45 0 -45 -20q0 -1 10.5 -18.5t10.5 -31.5q0 -18 -13.5 -33t-31.5 -15q-54 0 -54 51q0 47 48 71q37 18 90 18
q54 0 89 -18q45 -23 45 -72v-236q0 -24 14 -24q7 0 26 12zM119 109q0 -74 44 -74q45 0 54 60q3 15 1 95q-99 -2 -99 -81zM86 532h24q11 -70 77 -70q60 0 76 70h25q-9 -118 -104 -118q-93 0 -98 118zM190 522h-9q-3 18 -3 35q0 29 12 46l36 38q13 14 13 29q0 36 -38 36
q-34 0 -34 -18q0 -3 6 -3q23 0 23 -24q0 -20 -24 -20q-25 0 -25 26q0 47 54 47q28 0 45 -18.5t17 -46.5q0 -45 -32 -70q-42 -33 -42 -47q0 -2 1 -5v-5z" />
    <glyph glyph-name="glyph301" unicode="&#x1eb4;" horiz-adv-x="500" 
d="M481 0h-217v24h47l-46 170h-130l-45 -170h60v-24h-136v24h47l174 624h39l170 -624h37v-24zM258 221l-56 208h-2l-57 -208h115zM154 786h24q11 -70 77 -70q60 0 76 70h25q-9 -118 -104 -118q-93 0 -98 118zM482 884h24q-46 -89 -102 -88q-21 0 -51 22.5t-39 22.5
q-28 0 -48 -45h-24q40 88 102 87q11 0 23 -9t23 -17q30 -20 43 -20q22 0 49 47z" />
    <glyph glyph-name="glyph302" unicode="&#x1eb5;" 
d="M358 46l10 -13q-25 -42 -81 -42q-48 0 -64 50q-42 -50 -116 -50q-40 0 -65.5 21.5t-25.5 60.5q0 73 69 106q42 20 133 32v78q0 38 -6 51q-10 22 -43 22q-45 0 -45 -20q0 -1 10.5 -18.5t10.5 -31.5q0 -18 -13.5 -33t-31.5 -15q-54 0 -54 51q0 47 48 71q37 18 90 18
q54 0 89 -18q45 -23 45 -72v-236q0 -24 14 -24q7 0 26 12zM119 109q0 -74 44 -74q45 0 54 60q3 15 1 95q-99 -2 -99 -81zM86 532h24q11 -70 77 -70q60 0 76 70h25q-9 -118 -104 -118q-93 0 -98 118zM414 630h24q-46 -89 -102 -88q-21 0 -51 22.5t-39 22.5q-28 0 -48 -45h-24
q40 88 102 87q11 0 23 -9t23 -17q30 -20 43 -20q22 0 49 47z" />
    <glyph glyph-name="glyph303" unicode="&#x1eb6;" horiz-adv-x="500" 
d="M481 0h-217v24h47l-46 170h-130l-45 -170h60v-24h-136v24h47l174 624h39l170 -624h37v-24zM258 221l-56 208h-2l-57 -208h115zM154 786h24q11 -70 77 -70q60 0 76 70h25q-9 -118 -104 -118q-93 0 -98 118zM262 -55q0 -23 -16 -39t-39 -16t-39 16t-16 39t16 39t39 16
t39 -16t16 -39z" />
    <glyph glyph-name="glyph304" unicode="&#x1eb7;" 
d="M358 46l10 -13q-25 -42 -81 -42q-48 0 -64 50q-42 -50 -116 -50q-40 0 -65.5 21.5t-25.5 60.5q0 73 69 106q42 20 133 32v78q0 38 -6 51q-10 22 -43 22q-45 0 -45 -20q0 -1 10.5 -18.5t10.5 -31.5q0 -18 -13.5 -33t-31.5 -15q-54 0 -54 51q0 47 48 71q37 18 90 18
q54 0 89 -18q45 -23 45 -72v-236q0 -24 14 -24q7 0 26 12zM119 109q0 -74 44 -74q45 0 54 60q3 15 1 95q-99 -2 -99 -81zM239 -93q0 -23 -16 -39t-39 -16t-39 16t-16 39t16 39t39 16t39 -16t16 -39zM86 532h24q11 -70 77 -70q60 0 76 70h25q-9 -118 -104 -118q-93 0 -98 118
z" />
    <glyph glyph-name="glyph305" unicode="&#x1eb8;" horiz-adv-x="444" 
d="M427 211l-9 -211h-406v24h44v600h-44v24h394l6 -165h-23q-22 76 -49 105q-34 36 -105 36h-45v-273q54 0 75 32q16 25 18 83h25v-269h-22q-9 72 -24 96q-20 32 -72 32v-301h47q86 0 126 59q28 42 38 128h26zM273 -95q0 -23 -16 -39t-39 -16t-39 16t-16 39t16 39t39 16
t39 -16t16 -39z" />
    <glyph glyph-name="glyph306" unicode="&#x1eb9;" 
d="M354 217h-213v-92q0 -107 72 -107q102 0 121 100h24q-12 -59 -52 -93t-99 -34q-84 0 -134 58q-48 55 -48 140q0 79 47 135q50 60 127 60q68 0 111.5 -49t43.5 -118zM141 241h104v56q0 34 -10 48q-11 18 -42 18q-52 0 -52 -69v-53zM262 -104q0 -23 -16 -39t-39 -16t-39 16
t-16 39t16 39t39 16t39 -16t16 -39z" />
    <glyph glyph-name="glyph307" unicode="&#x1eba;" horiz-adv-x="444" 
d="M427 211l-9 -211h-406v24h44v600h-44v24h394l6 -165h-23q-22 76 -49 105q-34 36 -105 36h-45v-273q54 0 75 32q16 25 18 83h25v-269h-22q-9 72 -24 96q-20 32 -72 32v-301h47q86 0 126 59q28 42 38 128h26zM222 678h-9q-3 18 -3 35q0 29 12 46l36 38q13 14 13 29
q0 36 -38 36q-34 0 -34 -18q0 -3 6 -3q23 0 23 -24q0 -20 -24 -20q-25 0 -25 26q0 47 54 47q28 0 45 -18.5t17 -46.5q0 -45 -32 -70q-42 -33 -42 -47q0 -2 1 -5v-5z" />
    <glyph glyph-name="glyph308" unicode="&#x1ebb;" 
d="M354 217h-213v-92q0 -107 72 -107q102 0 121 100h24q-12 -59 -52 -93t-99 -34q-84 0 -134 58q-48 55 -48 140q0 79 47 135q50 60 127 60q68 0 111.5 -49t43.5 -118zM141 241h104v56q0 34 -10 48q-11 18 -42 18q-52 0 -52 -69v-53zM203 424h-9q-3 18 -3 35q0 29 12 46
l36 38q13 14 13 29q0 36 -38 36q-34 0 -34 -18q0 -3 6 -3q23 0 23 -24q0 -20 -24 -20q-25 0 -25 26q0 47 54 47q28 0 45 -18.5t17 -46.5q0 -45 -32 -70q-42 -33 -42 -47q0 -2 1 -5v-5z" />
    <glyph glyph-name="glyph309" unicode="&#x1ebc;" horiz-adv-x="444" 
d="M427 211l-9 -211h-406v24h44v600h-44v24h394l6 -165h-23q-22 76 -49 105q-34 36 -105 36h-45v-273q54 0 75 32q16 25 18 83h25v-269h-22q-9 72 -24 96q-20 32 -72 32v-301h47q86 0 126 59q28 42 38 128h26zM327 776h24q-46 -89 -102 -88q-21 0 -51 22.5t-39 22.5
q-28 0 -48 -45h-24q40 88 102 87q11 0 23 -9t23 -17q30 -20 43 -20q22 0 49 47z" />
    <glyph glyph-name="glyph310" unicode="&#x1ebd;" 
d="M354 217h-213v-92q0 -107 72 -107q102 0 121 100h24q-12 -59 -52 -93t-99 -34q-84 0 -134 58q-48 55 -48 140q0 79 47 135q50 60 127 60q68 0 111.5 -49t43.5 -118zM141 241h104v56q0 34 -10 48q-11 18 -42 18q-52 0 -52 -69v-53zM308 522h24q-46 -89 -102 -88
q-21 0 -51 22.5t-39 22.5q-28 0 -48 -45h-24q40 88 102 87q11 0 23 -9t23 -17q30 -20 43 -20q22 0 49 47z" />
    <glyph glyph-name="glyph311" unicode="&#x1ebe;" horiz-adv-x="444" 
d="M427 211l-9 -211h-406v24h44v600h-44v24h394l6 -165h-23q-22 76 -49 105q-34 36 -105 36h-45v-273q54 0 75 32q16 25 18 83h25v-269h-22q-9 72 -24 96q-20 32 -72 32v-301h47q86 0 126 59q28 42 38 128h26zM148 668h-30l75 121h50l76 -121h-31l-70 77zM329 745h-19
l88 111q21 26 42 26q27 0 27 -25q0 -20 -25 -37z" />
    <glyph glyph-name="glyph312" unicode="&#x1ebf;" 
d="M354 217h-213v-92q0 -107 72 -107q102 0 121 100h24q-12 -59 -52 -93t-99 -34q-84 0 -134 58q-48 55 -48 140q0 79 47 135q50 60 127 60q68 0 111.5 -49t43.5 -118zM141 241h104v56q0 34 -10 48q-11 18 -42 18q-52 0 -52 -69v-53zM129 395h-30l75 121h50l76 -121h-31
l-70 77zM310 472h-19l88 111q21 26 42 26q27 0 27 -25q0 -20 -25 -37z" />
    <glyph glyph-name="glyph313" unicode="&#x1ec0;" horiz-adv-x="444" 
d="M427 211l-9 -211h-406v24h44v600h-44v24h394l6 -165h-23q-22 76 -49 105q-34 36 -105 36h-45v-273q54 0 75 32q16 25 18 83h25v-269h-22q-9 72 -24 96q-20 32 -72 32v-301h47q86 0 126 59q28 42 38 128h26zM148 668h-30l75 121h50l76 -121h-31l-70 77zM127 745h-19
l-113 75q-25 17 -25 37q0 25 27 25q21 0 42 -26z" />
    <glyph glyph-name="glyph314" unicode="&#x1ec1;" 
d="M354 217h-213v-92q0 -107 72 -107q102 0 121 100h24q-12 -59 -52 -93t-99 -34q-84 0 -134 58q-48 55 -48 140q0 79 47 135q50 60 127 60q68 0 111.5 -49t43.5 -118zM141 241h104v56q0 34 -10 48q-11 18 -42 18q-52 0 -52 -69v-53zM129 395h-30l75 121h50l76 -121h-31
l-70 77zM108 472h-19l-113 75q-25 17 -25 37q0 25 27 25q21 0 42 -26z" />
    <glyph glyph-name="glyph315" unicode="&#x1ec2;" horiz-adv-x="444" 
d="M427 211l-9 -211h-406v24h44v600h-44v24h394l6 -165h-23q-22 76 -49 105q-34 36 -105 36h-45v-273q54 0 75 32q16 25 18 83h25v-269h-22q-9 72 -24 96q-20 32 -72 32v-301h47q86 0 126 59q28 42 38 128h26zM147 668h-30l75 121h50l76 -121h-31l-70 77zM322 735h-9
q-3 18 -3 35q0 29 12 46l36 38q13 14 13 29q0 36 -38 36q-34 0 -34 -18q0 -3 6 -3q23 0 23 -24q0 -20 -24 -20q-25 0 -25 26q0 47 54 47q28 0 45 -18.5t17 -46.5q0 -45 -32 -70q-42 -33 -42 -47q0 -2 1 -5v-5z" />
    <glyph glyph-name="glyph316" unicode="&#x1ec3;" 
d="M354 217h-213v-92q0 -107 72 -107q102 0 121 100h24q-12 -59 -52 -93t-99 -34q-84 0 -134 58q-48 55 -48 140q0 79 47 135q50 60 127 60q68 0 111.5 -49t43.5 -118zM141 241h104v56q0 34 -10 48q-11 18 -42 18q-52 0 -52 -69v-53zM129 395h-30l75 121h50l76 -121h-31
l-70 77zM304 462h-9q-3 18 -3 35q0 29 12 46l36 38q13 14 13 29q0 36 -38 36q-34 0 -34 -18q0 -3 6 -3q23 0 23 -24q0 -20 -24 -20q-25 0 -25 26q0 47 54 47q28 0 45 -18.5t17 -46.5q0 -45 -32 -70q-42 -33 -42 -47q0 -2 1 -5v-5z" />
    <glyph glyph-name="glyph317" unicode="&#x1ec4;" horiz-adv-x="444" 
d="M427 211l-9 -211h-406v24h44v600h-44v24h394l6 -165h-23q-22 76 -49 105q-34 36 -105 36h-45v-273q54 0 75 32q16 25 18 83h25v-269h-22q-9 72 -24 96q-20 32 -72 32v-301h47q86 0 126 59q28 42 38 128h26zM148 668h-30l75 121h50l76 -121h-31l-70 77zM327 906h24
q-46 -89 -102 -88q-21 0 -51 22.5t-39 22.5q-28 0 -48 -45h-24q40 88 102 87q11 0 23 -9t23 -17q30 -20 43 -20q22 0 49 47z" />
    <glyph glyph-name="glyph318" unicode="&#x1ec5;" 
d="M354 217h-213v-92q0 -107 72 -107q102 0 121 100h24q-12 -59 -52 -93t-99 -34q-84 0 -134 58q-48 55 -48 140q0 79 47 135q50 60 127 60q68 0 111.5 -49t43.5 -118zM141 241h104v56q0 34 -10 48q-11 18 -42 18q-52 0 -52 -69v-53zM129 395h-30l75 121h50l76 -121h-31
l-70 77zM308 633h24q-46 -89 -102 -88q-21 0 -51 22.5t-39 22.5q-28 0 -48 -45h-24q40 88 102 87q11 0 23 -9t23 -17q30 -20 43 -20q22 0 49 47z" />
    <glyph glyph-name="glyph319" unicode="&#x1ec6;" horiz-adv-x="444" 
d="M427 211l-9 -211h-406v24h44v600h-44v24h394l6 -165h-23q-22 76 -49 105q-34 36 -105 36h-45v-273q54 0 75 32q16 25 18 83h25v-269h-22q-9 72 -24 96q-20 32 -72 32v-301h47q86 0 126 59q28 42 38 128h26zM148 668h-30l75 121h50l76 -121h-31l-70 77zM273 -95
q0 -23 -16 -39t-39 -16t-39 16t-16 39t16 39t39 16t39 -16t16 -39z" />
    <glyph glyph-name="glyph320" unicode="&#x1ec7;" 
d="M354 217h-213v-92q0 -107 72 -107q102 0 121 100h24q-12 -59 -52 -93t-99 -34q-84 0 -134 58q-48 55 -48 140q0 79 47 135q50 60 127 60q68 0 111.5 -49t43.5 -118zM141 241h104v56q0 34 -10 48q-11 18 -42 18q-52 0 -52 -69v-53zM129 395h-30l75 121h50l76 -121h-31
l-70 77zM262 -104q0 -23 -16 -39t-39 -16t-39 16t-16 39t16 39t39 16t39 -16t16 -39z" />
    <glyph glyph-name="glyph321" unicode="&#x1ec8;" horiz-adv-x="278" 
d="M206 24h52v-24h-238v24h52v600h-52v24h238v-24h-52v-600zM143 678h-9q-3 18 -3 35q0 29 12 46l36 38q13 14 13 29q0 36 -38 36q-34 0 -34 -18q0 -3 6 -3q23 0 23 -24q0 -20 -24 -20q-25 0 -25 26q0 47 54 47q28 0 45 -18.5t17 -46.5q0 -45 -32 -70q-42 -33 -42 -47
q0 -2 1 -5v-5z" />
    <glyph glyph-name="glyph322" unicode="&#x1ec9;" horiz-adv-x="222" 
d="M11 21h44v333h-41v21q91 0 147 7v-361h39v-21h-189v21zM112 414h-9q-3 18 -3 35q0 29 12 46l36 38q13 14 13 29q0 36 -38 36q-34 0 -34 -18q0 -3 6 -3q23 0 23 -24q0 -20 -24 -20q-25 0 -25 26q0 47 54 47q28 0 45 -18.5t17 -46.5q0 -45 -32 -70q-42 -33 -42 -47
q0 -2 1 -5v-5z" />
    <glyph glyph-name="glyph323" unicode="&#x1eca;" horiz-adv-x="278" 
d="M206 24h52v-24h-238v24h52v600h-52v24h238v-24h-52v-600zM194 -95q0 -23 -16 -39t-39 -16t-39 16t-16 39t16 39t39 16t39 -16t16 -39z" />
    <glyph glyph-name="glyph324" unicode="&#x1ecb;" horiz-adv-x="222" 
d="M11 21h44v333h-41v21q91 0 147 7v-361h39v-21h-189v21zM161 480q0 -22 -15.5 -37.5t-37.5 -15.5q-23 0 -38 15t-15 38t15 38t38 15q22 0 37.5 -15.5t15.5 -37.5zM163 -95q0 -23 -16 -39t-39 -16t-39 16t-16 39t16 39t39 16t39 -16t16 -39z" />
    <glyph glyph-name="glyph325" unicode="&#x1ecc;" horiz-adv-x="556" 
d="M371 165v289q0 84 -10 117q-20 63 -83 63t-83 -63q-10 -33 -10 -117v-289q0 -154 93 -154t93 154zM278 658q118 0 188 -114q59 -96 59 -222q0 -125 -60 -222q-69 -113 -187 -113t-187 113q-60 97 -60 222q0 126 59 222q70 114 188 114zM333 -108q0 -23 -16 -39t-39 -16
t-39 16t-16 39t16 39t39 16t39 -16t16 -39z" />
    <glyph glyph-name="glyph326" unicode="&#x1ecd;" 
d="M194 -9q-81 0 -129 59q-44 54 -44 137t44 138q48 59 129 59t129 -59q44 -55 44 -138t-44 -137q-48 -59 -129 -59zM136 282v-180q0 -92 58 -92q38 0 51 29q7 16 7 62v181q0 83 -58 83t-58 -83zM249 -104q0 -23 -16 -39t-39 -16t-39 16t-16 39t16 39t39 16t39 -16t16 -39z
" />
    <glyph glyph-name="glyph327" unicode="&#x1ece;" horiz-adv-x="556" 
d="M371 165v289q0 84 -10 117q-20 63 -83 63t-83 -63q-10 -33 -10 -117v-289q0 -154 93 -154t93 154zM278 658q118 0 188 -114q59 -96 59 -222q0 -125 -60 -222q-69 -113 -187 -113t-187 113q-60 97 -60 222q0 126 59 222q70 114 188 114zM282 688h-9q-3 18 -3 35
q0 29 12 46l36 38q13 14 13 29q0 36 -38 36q-34 0 -34 -18q0 -3 6 -3q23 0 23 -24q0 -20 -24 -20q-25 0 -25 26q0 47 54 47q28 0 45 -18.5t17 -46.5q0 -45 -32 -70q-42 -33 -42 -47q0 -2 1 -5v-5z" />
    <glyph glyph-name="glyph328" unicode="&#x1ecf;" 
d="M194 -9q-81 0 -129 59q-44 54 -44 137t44 138q48 59 129 59t129 -59q44 -55 44 -138t-44 -137q-48 -59 -129 -59zM136 282v-180q0 -92 58 -92q38 0 51 29q7 16 7 62v181q0 83 -58 83t-58 -83zM198 424h-9q-3 18 -3 35q0 29 12 46l36 38q13 14 13 29q0 36 -38 36
q-34 0 -34 -18q0 -3 6 -3q23 0 23 -24q0 -20 -24 -20q-25 0 -25 26q0 47 54 47q28 0 45 -18.5t17 -46.5q0 -45 -32 -70q-42 -33 -42 -47q0 -2 1 -5v-5z" />
    <glyph glyph-name="glyph329" unicode="&#x1ed0;" horiz-adv-x="556" 
d="M371 165v289q0 84 -10 117q-20 63 -83 63t-83 -63q-10 -33 -10 -117v-289q0 -154 93 -154t93 154zM278 658q118 0 188 -114q59 -96 59 -222q0 -125 -60 -222q-69 -113 -187 -113t-187 113q-60 97 -60 222q0 126 59 222q70 114 188 114zM208 658h-30l75 121h50l76 -121
h-31l-70 77zM389 735h-19l88 111q21 26 42 26q27 0 27 -25q0 -20 -25 -37z" />
    <glyph glyph-name="glyph330" unicode="&#x1ed1;" 
d="M194 -9q-81 0 -129 59q-44 54 -44 137t44 138q48 59 129 59t129 -59q44 -55 44 -138t-44 -137q-48 -59 -129 -59zM136 282v-180q0 -92 58 -92q38 0 51 29q7 16 7 62v181q0 83 -58 83t-58 -83zM124 395h-30l75 121h50l76 -121h-31l-70 77zM305 472h-19l88 111q21 26 42 26
q27 0 27 -25q0 -20 -25 -37z" />
    <glyph glyph-name="glyph331" unicode="&#x1ed2;" horiz-adv-x="556" 
d="M371 165v289q0 84 -10 117q-20 63 -83 63t-83 -63q-10 -33 -10 -117v-289q0 -154 93 -154t93 154zM278 658q118 0 188 -114q59 -96 59 -222q0 -125 -60 -222q-69 -113 -187 -113t-187 113q-60 97 -60 222q0 126 59 222q70 114 188 114zM208 658h-30l75 121h50l76 -121
h-31l-70 77zM187 735h-19l-113 75q-25 17 -25 37q0 25 27 25q21 0 42 -26z" />
    <glyph glyph-name="glyph332" unicode="&#x1ed3;" 
d="M194 -9q-81 0 -129 59q-44 54 -44 137t44 138q48 59 129 59t129 -59q44 -55 44 -138t-44 -137q-48 -59 -129 -59zM136 282v-180q0 -92 58 -92q38 0 51 29q7 16 7 62v181q0 83 -58 83t-58 -83zM124 395h-30l75 121h50l76 -121h-31l-70 77zM103 472h-19l-113 75
q-25 17 -25 37q0 25 27 25q21 0 42 -26z" />
    <glyph glyph-name="glyph333" unicode="&#x1ed4;" horiz-adv-x="556" 
d="M371 165v289q0 84 -10 117q-20 63 -83 63t-83 -63q-10 -33 -10 -117v-289q0 -154 93 -154t93 154zM278 658q118 0 188 -114q59 -96 59 -222q0 -125 -60 -222q-69 -113 -187 -113t-187 113q-60 97 -60 222q0 126 59 222q70 114 188 114zM208 658h-30l75 121h50l76 -121
h-31l-70 77zM383 725h-9q-3 18 -3 35q0 29 12 46l36 38q13 14 13 29q0 36 -38 36q-34 0 -34 -18q0 -3 6 -3q23 0 23 -24q0 -20 -24 -20q-25 0 -25 26q0 47 54 47q28 0 45 -18.5t17 -46.5q0 -45 -32 -70q-42 -33 -42 -47q0 -2 1 -5v-5z" />
    <glyph glyph-name="glyph334" unicode="&#x1ed5;" 
d="M194 -9q-81 0 -129 59q-44 54 -44 137t44 138q48 59 129 59t129 -59q44 -55 44 -138t-44 -137q-48 -59 -129 -59zM136 282v-180q0 -92 58 -92q38 0 51 29q7 16 7 62v181q0 83 -58 83t-58 -83zM124 395h-30l75 121h50l76 -121h-31l-70 77zM299 462h-9q-3 18 -3 35
q0 29 12 46l36 38q13 14 13 29q0 36 -38 36q-34 0 -34 -18q0 -3 6 -3q23 0 23 -24q0 -20 -24 -20q-25 0 -25 26q0 47 54 47q28 0 45 -18.5t17 -46.5q0 -45 -32 -70q-42 -33 -42 -47q0 -2 1 -5v-5z" />
    <glyph glyph-name="glyph335" unicode="&#x1ed6;" horiz-adv-x="556" 
d="M371 165v289q0 84 -10 117q-20 63 -83 63t-83 -63q-10 -33 -10 -117v-289q0 -154 93 -154t93 154zM278 658q118 0 188 -114q59 -96 59 -222q0 -125 -60 -222q-69 -113 -187 -113t-187 113q-60 97 -60 222q0 126 59 222q70 114 188 114zM208 658h-30l75 121h50l76 -121
h-31l-70 77zM387 896h24q-46 -89 -102 -88q-21 0 -51 22.5t-39 22.5q-28 0 -48 -45h-24q40 88 102 87q11 0 23 -9t23 -17q30 -20 43 -20q22 0 49 47z" />
    <glyph glyph-name="glyph336" unicode="&#x1ed7;" 
d="M194 -9q-81 0 -129 59q-44 54 -44 137t44 138q48 59 129 59t129 -59q44 -55 44 -138t-44 -137q-48 -59 -129 -59zM136 282v-180q0 -92 58 -92q38 0 51 29q7 16 7 62v181q0 83 -58 83t-58 -83zM124 395h-30l75 121h50l76 -121h-31l-70 77zM303 633h24q-46 -89 -102 -88
q-21 0 -51 22.5t-39 22.5q-28 0 -48 -45h-24q40 88 102 87q11 0 23 -9t23 -17q30 -20 43 -20q22 0 49 47z" />
    <glyph glyph-name="glyph337" unicode="&#x1ed8;" horiz-adv-x="556" 
d="M371 165v289q0 84 -10 117q-20 63 -83 63t-83 -63q-10 -33 -10 -117v-289q0 -154 93 -154t93 154zM278 658q118 0 188 -114q59 -96 59 -222q0 -125 -60 -222q-69 -113 -187 -113t-187 113q-60 97 -60 222q0 126 59 222q70 114 188 114zM208 658h-30l75 121h50l76 -121
h-31l-70 77zM333 -108q0 -23 -16 -39t-39 -16t-39 16t-16 39t16 39t39 16t39 -16t16 -39z" />
    <glyph glyph-name="glyph338" unicode="&#x1ed9;" 
d="M194 -9q-81 0 -129 59q-44 54 -44 137t44 138q48 59 129 59t129 -59q44 -55 44 -138t-44 -137q-48 -59 -129 -59zM136 282v-180q0 -92 58 -92q38 0 51 29q7 16 7 62v181q0 83 -58 83t-58 -83zM124 395h-30l75 121h50l76 -121h-31l-70 77zM249 -104q0 -23 -16 -39t-39 -16
t-39 16t-16 39t16 39t39 16t39 -16t16 -39z" />
    <glyph glyph-name="glyph339" unicode="&#x1eda;" horiz-adv-x="556" 
d="M371 165v289q0 84 -10 117q-20 63 -83 63t-83 -63q-10 -33 -10 -117v-289q0 -154 93 -154t93 154zM381 629q67 17 79 45q-7 -2 -13 -2q-16 0 -27.5 10t-11.5 25q0 10 5 18q14 24 37 24q18 0 30.5 -12.5t12.5 -30.5q0 -16 -9 -31q-25 -43 -87 -57q66 -47 99 -132
q29 -74 29 -164q0 -125 -60 -222q-69 -113 -187 -113t-187 113q-60 97 -60 222q0 126 59 222q70 114 188 114q56 0 103 -29zM288 698h-19l88 111q21 26 42 26q27 0 27 -25q0 -20 -25 -37z" />
    <glyph glyph-name="glyph340" unicode="&#x1edb;" 
d="M136 282v-180q0 -92 58 -92q38 0 51 29q7 16 7 62v181q0 83 -58 83t-58 -83zM283 360q56 6 71 27q-20 -2 -30 11q-11 8 -11 21q0 14 12 25.5t26 11.5q15 0 26 -11t11 -26q0 -18 -13 -34q-26 -32 -75 -37q67 -57 67 -161q0 -83 -44 -137q-48 -59 -129 -59t-129 59
q-44 54 -44 137t44 138q48 59 129 59q51 0 89 -24zM204 434h-19l88 111q21 26 42 26q27 0 27 -25q0 -20 -25 -37z" />
    <glyph glyph-name="glyph341" unicode="&#x1edc;" horiz-adv-x="556" 
d="M371 165v289q0 84 -10 117q-20 63 -83 63t-83 -63q-10 -33 -10 -117v-289q0 -154 93 -154t93 154zM381 629q67 17 79 45q-7 -2 -13 -2q-16 0 -27.5 10t-11.5 25q0 10 5 18q14 24 37 24q18 0 30.5 -12.5t12.5 -30.5q0 -16 -9 -31q-25 -43 -87 -57q66 -47 99 -132
q29 -74 29 -164q0 -125 -60 -222q-69 -113 -187 -113t-187 113q-60 97 -60 222q0 126 59 222q70 114 188 114q56 0 103 -29zM287 698h-19l-113 75q-25 17 -25 37q0 25 27 25q21 0 42 -26z" />
    <glyph glyph-name="glyph342" unicode="&#x1edd;" 
d="M136 282v-180q0 -92 58 -92q38 0 51 29q7 16 7 62v181q0 83 -58 83t-58 -83zM283 360q56 6 71 27q-20 -2 -30 11q-11 8 -11 21q0 14 12 25.5t26 11.5q15 0 26 -11t11 -26q0 -18 -13 -34q-26 -32 -75 -37q67 -57 67 -161q0 -83 -44 -137q-48 -59 -129 -59t-129 59
q-44 54 -44 137t44 138q48 59 129 59q51 0 89 -24zM203 434h-19l-113 75q-25 17 -25 37q0 25 27 25q21 0 42 -26z" />
    <glyph glyph-name="glyph343" unicode="&#x1ede;" horiz-adv-x="556" 
d="M371 165v289q0 84 -10 117q-20 63 -83 63t-83 -63q-10 -33 -10 -117v-289q0 -154 93 -154t93 154zM381 629q67 17 79 45q-7 -2 -13 -2q-16 0 -27.5 10t-11.5 25q0 10 5 18q14 24 37 24q18 0 30.5 -12.5t12.5 -30.5q0 -16 -9 -31q-25 -43 -87 -57q66 -47 99 -132
q29 -74 29 -164q0 -125 -60 -222q-69 -113 -187 -113t-187 113q-60 97 -60 222q0 126 59 222q70 114 188 114q56 0 103 -29zM282 688h-9q-3 18 -3 35q0 29 12 46l36 38q13 14 13 29q0 36 -38 36q-34 0 -34 -18q0 -3 6 -3q23 0 23 -24q0 -20 -24 -20q-25 0 -25 26q0 47 54 47
q28 0 45 -18.5t17 -46.5q0 -45 -32 -70q-42 -33 -42 -47q0 -2 1 -5v-5z" />
    <glyph glyph-name="glyph344" unicode="&#x1edf;" 
d="M136 282v-180q0 -92 58 -92q38 0 51 29q7 16 7 62v181q0 83 -58 83t-58 -83zM283 360q56 6 71 27q-20 -2 -30 11q-11 8 -11 21q0 14 12 25.5t26 11.5q15 0 26 -11t11 -26q0 -18 -13 -34q-26 -32 -75 -37q67 -57 67 -161q0 -83 -44 -137q-48 -59 -129 -59t-129 59
q-44 54 -44 137t44 138q48 59 129 59q51 0 89 -24zM198 424h-9q-3 18 -3 35q0 29 12 46l36 38q13 14 13 29q0 36 -38 36q-34 0 -34 -18q0 -3 6 -3q23 0 23 -24q0 -20 -24 -20q-25 0 -25 26q0 47 54 47q28 0 45 -18.5t17 -46.5q0 -45 -32 -70q-42 -33 -42 -47q0 -2 1 -5v-5z
" />
    <glyph glyph-name="glyph345" unicode="&#x1ee0;" horiz-adv-x="556" 
d="M371 165v289q0 84 -10 117q-20 63 -83 63t-83 -63q-10 -33 -10 -117v-289q0 -154 93 -154t93 154zM381 629q67 17 79 45q-7 -2 -13 -2q-16 0 -27.5 10t-11.5 25q0 10 5 18q14 24 37 24q18 0 30.5 -12.5t12.5 -30.5q0 -16 -9 -31q-25 -43 -87 -57q66 -47 99 -132
q29 -74 29 -164q0 -125 -60 -222q-69 -113 -187 -113t-187 113q-60 97 -60 222q0 126 59 222q70 114 188 114q56 0 103 -29zM387 786h24q-46 -89 -102 -88q-21 0 -51 22.5t-39 22.5q-28 0 -48 -45h-24q40 88 102 87q11 0 23 -9t23 -17q30 -20 43 -20q22 0 49 47z" />
    <glyph glyph-name="glyph346" unicode="&#x1ee1;" 
d="M136 282v-180q0 -92 58 -92q38 0 51 29q7 16 7 62v181q0 83 -58 83t-58 -83zM283 360q56 6 71 27q-20 -2 -30 11q-11 8 -11 21q0 14 12 25.5t26 11.5q15 0 26 -11t11 -26q0 -18 -13 -34q-26 -32 -75 -37q67 -57 67 -161q0 -83 -44 -137q-48 -59 -129 -59t-129 59
q-44 54 -44 137t44 138q48 59 129 59q51 0 89 -24zM303 522h24q-46 -89 -102 -88q-21 0 -51 22.5t-39 22.5q-28 0 -48 -45h-24q40 88 102 87q11 0 23 -9t23 -17q30 -20 43 -20q22 0 49 47z" />
    <glyph glyph-name="glyph347" unicode="&#x1ee2;" horiz-adv-x="556" 
d="M371 165v289q0 84 -10 117q-20 63 -83 63t-83 -63q-10 -33 -10 -117v-289q0 -154 93 -154t93 154zM381 629q67 17 79 45q-7 -2 -13 -2q-16 0 -27.5 10t-11.5 25q0 10 5 18q14 24 37 24q18 0 30.5 -12.5t12.5 -30.5q0 -16 -9 -31q-25 -43 -87 -57q66 -47 99 -132
q29 -74 29 -164q0 -125 -60 -222q-69 -113 -187 -113t-187 113q-60 97 -60 222q0 126 59 222q70 114 188 114q56 0 103 -29zM333 -108q0 -23 -16 -39t-39 -16t-39 16t-16 39t16 39t39 16t39 -16t16 -39z" />
    <glyph glyph-name="glyph348" unicode="&#x1ee3;" 
d="M136 282v-180q0 -92 58 -92q38 0 51 29q7 16 7 62v181q0 83 -58 83t-58 -83zM283 360q56 6 71 27q-20 -2 -30 11q-11 8 -11 21q0 14 12 25.5t26 11.5q15 0 26 -11t11 -26q0 -18 -13 -34q-26 -32 -75 -37q67 -57 67 -161q0 -83 -44 -137q-48 -59 -129 -59t-129 59
q-44 54 -44 137t44 138q48 59 129 59q51 0 89 -24zM249 -104q0 -23 -16 -39t-39 -16t-39 16t-16 39t16 39t39 16t39 -16t16 -39z" />
    <glyph glyph-name="glyph349" unicode="&#x1ee4;" horiz-adv-x="500" 
d="M250 624h-48v-493q0 -112 91 -112q115 0 115 152v453h-49v24h128v-24h-49v-445q0 -82 -25 -124q-40 -68 -151 -68q-85 0 -137 38q-57 43 -57 125v474h-46v24h228v-24zM317 -108q0 -23 -16 -39t-39 -16t-39 16t-16 39t16 39t39 16t39 -16t16 -39z" />
    <glyph glyph-name="glyph350" unicode="&#x1ee5;" horiz-adv-x="444" 
d="M272 -4l-9 49q-51 -54 -109 -54q-103 0 -103 108v255h-41v21q91 0 147 7v-303q0 -46 43 -46q40 0 58 48q13 33 13 80v193h-49v21q56 0 78 1q40 2 77 6v-359h42v-21q-57 0 -147 -6zM269 -94q0 -23 -16 -39t-39 -16t-39 16t-16 39t16 39t39 16t39 -16t16 -39z" />
    <glyph glyph-name="glyph351" unicode="&#x1ee6;" horiz-adv-x="500" 
d="M250 624h-48v-493q0 -112 91 -112q115 0 115 152v453h-49v24h128v-24h-49v-445q0 -82 -25 -124q-40 -68 -151 -68q-85 0 -137 38q-57 43 -57 125v474h-46v24h228v-24zM308 658h-9q-3 18 -3 35q0 29 12 46l36 38q13 14 13 29q0 36 -38 36q-34 0 -34 -18q0 -3 6 -3
q23 0 23 -24q0 -20 -24 -20q-25 0 -25 26q0 47 54 47q28 0 45 -18.5t17 -46.5q0 -45 -32 -70q-42 -33 -42 -47q0 -2 1 -5v-5z" />
    <glyph glyph-name="glyph352" unicode="&#x1ee7;" horiz-adv-x="444" 
d="M272 -4l-9 49q-51 -54 -109 -54q-103 0 -103 108v255h-41v21q91 0 147 7v-303q0 -46 43 -46q40 0 58 48q13 33 13 80v193h-49v21q56 0 78 1q40 2 77 6v-359h42v-21q-57 0 -147 -6zM218 404h-9q-3 18 -3 35q0 29 12 46l36 38q13 14 13 29q0 36 -38 36q-34 0 -34 -18
q0 -3 6 -3q23 0 23 -24q0 -20 -24 -20q-25 0 -25 26q0 47 54 47q28 0 45 -18.5t17 -46.5q0 -45 -32 -70q-42 -33 -42 -47q0 -2 1 -5v-5z" />
    <glyph glyph-name="glyph353" unicode="&#x1ee8;" horiz-adv-x="500" 
d="M438 618v-439q0 -82 -25 -124q-40 -68 -151 -68q-85 0 -137 38q-57 43 -57 125v474h-46v24h228v-24h-48v-493q0 -112 91 -112q115 0 115 152v453h-49v24h114q20 11 27 26q-7 -2 -13 -2q-16 0 -27.5 10t-11.5 25q0 10 5 18q14 24 37 24q18 0 30.5 -12.5t12.5 -30.5
q0 -16 -9 -31q-25 -43 -86 -57zM314 668h-19l88 111q21 26 42 26q27 0 27 -25q0 -20 -25 -37z" />
    <glyph glyph-name="glyph354" unicode="&#x1ee9;" horiz-adv-x="444" 
d="M377 363q35 7 47 24q-20 -2 -30 11q-11 8 -11 21q0 14 12 25.5t26 11.5q15 0 26 -11t11 -26q0 -18 -13 -34q-26 -31 -68 -36v-326h42v-21q-57 0 -147 -6l-9 49q-51 -54 -109 -54q-103 0 -103 108v255h-41v21q91 0 147 7v-303q0 -46 43 -46q40 0 58 48q13 33 13 80v193
h-49v21q52 0 78 1t77 -13zM224 414h-19l88 111q21 26 42 26q27 0 27 -25q0 -20 -25 -37z" />
    <glyph glyph-name="glyph355" unicode="&#x1eea;" horiz-adv-x="500" 
d="M438 618v-439q0 -82 -25 -124q-40 -68 -151 -68q-85 0 -137 38q-57 43 -57 125v474h-46v24h228v-24h-48v-493q0 -112 91 -112q115 0 115 152v453h-49v24h114q20 11 27 26q-7 -2 -13 -2q-16 0 -27.5 10t-11.5 25q0 10 5 18q14 24 37 24q18 0 30.5 -12.5t12.5 -30.5
q0 -16 -9 -31q-25 -43 -86 -57zM313 668h-19l-113 75q-25 17 -25 37q0 25 27 25q21 0 42 -26z" />
    <glyph glyph-name="glyph356" unicode="&#x1eeb;" horiz-adv-x="444" 
d="M377 363q35 7 47 24q-20 -2 -30 11q-11 8 -11 21q0 14 12 25.5t26 11.5q15 0 26 -11t11 -26q0 -18 -13 -34q-26 -31 -68 -36v-326h42v-21q-57 0 -147 -6l-9 49q-51 -54 -109 -54q-103 0 -103 108v255h-41v21q91 0 147 7v-303q0 -46 43 -46q40 0 58 48q13 33 13 80v193
h-49v21q52 0 78 1t77 -13zM223 414h-19l-113 75q-25 17 -25 37q0 25 27 25q21 0 42 -26z" />
    <glyph glyph-name="glyph357" unicode="&#x1eec;" horiz-adv-x="500" 
d="M438 618v-439q0 -82 -25 -124q-40 -68 -151 -68q-85 0 -137 38q-57 43 -57 125v474h-46v24h228v-24h-48v-493q0 -112 91 -112q115 0 115 152v453h-49v24h114q20 11 27 26q-7 -2 -13 -2q-16 0 -27.5 10t-11.5 25q0 10 5 18q14 24 37 24q18 0 30.5 -12.5t12.5 -30.5
q0 -16 -9 -31q-25 -43 -86 -57zM308 658h-9q-3 18 -3 35q0 29 12 46l36 38q13 14 13 29q0 36 -38 36q-34 0 -34 -18q0 -3 6 -3q23 0 23 -24q0 -20 -24 -20q-25 0 -25 26q0 47 54 47q28 0 45 -18.5t17 -46.5q0 -45 -32 -70q-42 -33 -42 -47q0 -2 1 -5v-5z" />
    <glyph glyph-name="glyph358" unicode="&#x1eed;" horiz-adv-x="444" 
d="M377 363q35 7 47 24q-20 -2 -30 11q-11 8 -11 21q0 14 12 25.5t26 11.5q15 0 26 -11t11 -26q0 -18 -13 -34q-26 -31 -68 -36v-326h42v-21q-57 0 -147 -6l-9 49q-51 -54 -109 -54q-103 0 -103 108v255h-41v21q91 0 147 7v-303q0 -46 43 -46q40 0 58 48q13 33 13 80v193
h-49v21q52 0 78 1t77 -13zM218 404h-9q-3 18 -3 35q0 29 12 46l36 38q13 14 13 29q0 36 -38 36q-34 0 -34 -18q0 -3 6 -3q23 0 23 -24q0 -20 -24 -20q-25 0 -25 26q0 47 54 47q28 0 45 -18.5t17 -46.5q0 -45 -32 -70q-42 -33 -42 -47q0 -2 1 -5v-5z" />
    <glyph glyph-name="glyph359" unicode="&#x1eee;" horiz-adv-x="500" 
d="M438 618v-439q0 -82 -25 -124q-40 -68 -151 -68q-85 0 -137 38q-57 43 -57 125v474h-46v24h228v-24h-48v-493q0 -112 91 -112q115 0 115 152v453h-49v24h114q20 11 27 26q-7 -2 -13 -2q-16 0 -27.5 10t-11.5 25q0 10 5 18q14 24 37 24q18 0 30.5 -12.5t12.5 -30.5
q0 -16 -9 -31q-25 -43 -86 -57zM413 766h24q-46 -89 -102 -88q-21 0 -51 22.5t-39 22.5q-28 0 -48 -45h-24q40 88 102 87q11 0 23 -9t23 -17q30 -20 43 -20q22 0 49 47z" />
    <glyph glyph-name="glyph360" unicode="&#x1eef;" horiz-adv-x="444" 
d="M377 363q35 7 47 24q-20 -2 -30 11q-11 8 -11 21q0 14 12 25.5t26 11.5q15 0 26 -11t11 -26q0 -18 -13 -34q-26 -31 -68 -36v-326h42v-21q-57 0 -147 -6l-9 49q-51 -54 -109 -54q-103 0 -103 108v255h-41v21q91 0 147 7v-303q0 -46 43 -46q40 0 58 48q13 33 13 80v193
h-49v21q52 0 78 1t77 -13zM323 502h24q-46 -89 -102 -88q-21 0 -51 22.5t-39 22.5q-28 0 -48 -45h-24q40 88 102 87q11 0 23 -9t23 -17q30 -20 43 -20q22 0 49 47z" />
    <glyph glyph-name="glyph361" unicode="&#x1ef0;" horiz-adv-x="500" 
d="M438 618v-439q0 -82 -25 -124q-40 -68 -151 -68q-85 0 -137 38q-57 43 -57 125v474h-46v24h228v-24h-48v-493q0 -112 91 -112q115 0 115 152v453h-49v24h114q20 11 27 26q-7 -2 -13 -2q-16 0 -27.5 10t-11.5 25q0 10 5 18q14 24 37 24q18 0 30.5 -12.5t12.5 -30.5
q0 -16 -9 -31q-25 -43 -86 -57zM317 -108q0 -23 -16 -39t-39 -16t-39 16t-16 39t16 39t39 16t39 -16t16 -39z" />
    <glyph glyph-name="glyph362" unicode="&#x1ef1;" horiz-adv-x="444" 
d="M377 363q35 7 47 24q-20 -2 -30 11q-11 8 -11 21q0 14 12 25.5t26 11.5q15 0 26 -11t11 -26q0 -18 -13 -34q-26 -31 -68 -36v-326h42v-21q-57 0 -147 -6l-9 49q-51 -54 -109 -54q-103 0 -103 108v255h-41v21q91 0 147 7v-303q0 -46 43 -46q40 0 58 48q13 33 13 80v193
h-49v21q52 0 78 1t77 -13zM269 -94q0 -23 -16 -39t-39 -16t-39 16t-16 39t16 39t39 16t39 -16t16 -39z" />
    <glyph glyph-name="glyph363" unicode="&#x1ef2;" horiz-adv-x="500" 
d="M318 24h59v-24h-250v24h57v266l-135 334h-35v24h211v-24h-42l113 -276l113 276h-46v24h116v-24h-38l-123 -303v-297zM303 658h-19l-113 75q-25 17 -25 37q0 25 27 25q21 0 42 -26z" />
    <glyph glyph-name="glyph364" unicode="&#x1ef3;" 
d="M183 354h-37l89 -219l76 219h-38v21h95v-21h-29l-154 -429q-25 -69 -41 -96q-34 -56 -80 -56q-24 0 -39 16.5t-15 40.5q0 47 49 47q16 0 32 -15t21 -15q26 0 70 148l-139 359h-27v21h167v-21zM237 395h-19l-113 75q-25 17 -25 37q0 25 27 25q21 0 42 -26z" />
    <glyph glyph-name="glyph365" unicode="&#x1ef4;" horiz-adv-x="500" 
d="M318 24h59v-24h-250v24h57v266l-135 334h-35v24h211v-24h-42l113 -276l113 276h-46v24h116v-24h-38l-123 -303v-297zM306 -95q0 -23 -16 -39t-39 -16t-39 16t-16 39t16 39t39 16t39 -16t16 -39z" />
    <glyph glyph-name="glyph366" unicode="&#x1ef5;" 
d="M183 354h-37l89 -219l76 219h-38v21h95v-21h-29l-154 -429q-25 -69 -41 -96q-34 -56 -80 -56q-24 0 -39 16.5t-15 40.5q0 47 49 47q16 0 32 -15t21 -15q26 0 70 148l-139 359h-27v21h167v-21zM346 -55q0 -23 -16 -39t-39 -16t-39 16t-16 39t16 39t39 16t39 -16t16 -39z
" />
    <glyph glyph-name="glyph367" unicode="&#x1ef6;" horiz-adv-x="500" 
d="M318 24h59v-24h-250v24h57v266l-135 334h-35v24h211v-24h-42l113 -276l113 276h-46v24h116v-24h-38l-123 -303v-297zM298 648h-9q-3 18 -3 35q0 29 12 46l36 38q13 14 13 29q0 36 -38 36q-34 0 -34 -18q0 -3 6 -3q23 0 23 -24q0 -20 -24 -20q-25 0 -25 26q0 47 54 47
q28 0 45 -18.5t17 -46.5q0 -45 -32 -70q-42 -33 -42 -47q0 -2 1 -5v-5z" />
    <glyph glyph-name="glyph368" unicode="&#x1ef7;" 
d="M183 354h-37l89 -219l76 219h-38v21h95v-21h-29l-154 -429q-25 -69 -41 -96q-34 -56 -80 -56q-24 0 -39 16.5t-15 40.5q0 47 49 47q16 0 32 -15t21 -15q26 0 70 148l-139 359h-27v21h167v-21zM232 374h-9q-3 18 -3 35q0 29 12 46l36 38q13 14 13 29q0 36 -38 36
q-34 0 -34 -18q0 -3 6 -3q23 0 23 -24q0 -20 -24 -20q-25 0 -25 26q0 47 54 47q28 0 45 -18.5t17 -46.5q0 -45 -32 -70q-42 -33 -42 -47q0 -2 1 -5v-5z" />
    <glyph glyph-name="glyph369" unicode="&#x1ef8;" horiz-adv-x="500" 
d="M318 24h59v-24h-250v24h57v266l-135 334h-35v24h211v-24h-42l113 -276l113 276h-46v24h116v-24h-38l-123 -303v-297zM403 756h24q-46 -89 -102 -88q-21 0 -51 22.5t-39 22.5q-28 0 -48 -45h-24q40 88 102 87q11 0 23 -9t23 -17q30 -20 43 -20q22 0 49 47z" />
    <glyph glyph-name="glyph370" unicode="&#x1ef9;" 
d="M183 354h-37l89 -219l76 219h-38v21h95v-21h-29l-154 -429q-25 -69 -41 -96q-34 -56 -80 -56q-24 0 -39 16.5t-15 40.5q0 47 49 47q16 0 32 -15t21 -15q26 0 70 148l-139 359h-27v21h167v-21zM337 492h24q-46 -89 -102 -88q-21 0 -51 22.5t-39 22.5q-28 0 -48 -45h-24
q40 88 102 87q11 0 23 -9t23 -17q30 -20 43 -20q22 0 49 47z" />
    <glyph glyph-name="endash" unicode="&#x2013;" horiz-adv-x="500" 
d="M0 156v67h500v-67h-500z" />
    <glyph glyph-name="emdash" unicode="&#x2014;" horiz-adv-x="1000" 
d="M1000 223v-67h-1000v67h1000z" />
    <glyph glyph-name="quoteleft" unicode="&#x2018;" horiz-adv-x="222" 
d="M141 658v0l15 -16q-44 -45 -60 -69q-26 -38 -23 -69q19 22 55 22q25 0 40 -18t15 -40q0 -36 -20 -55.5t-49 -19.5q-35 0 -55 26t-20 63q0 89 102 176z" />
    <glyph glyph-name="quoteright" unicode="&#x2019;" horiz-adv-x="222" 
d="M81 393v0l-15 16q44 45 60 69q26 38 23 69q-19 -22 -55 -22q-25 0 -40 18t-15 40q0 36 20 55.5t49 19.5q35 0 55 -26t20 -63q0 -89 -102 -176z" />
    <glyph glyph-name="quotesinglbase" unicode="&#x201a;" horiz-adv-x="222" 
d="M81 -140v0l-15 16q42 44 55 62q27 39 29 76q-23 -22 -56 -22q-24 0 -39.5 17t-15.5 41q0 32 19 53.5t50 21.5q34 0 56 -28q19 -26 19 -61q0 -91 -102 -176z" />
    <glyph glyph-name="quotedblleft" unicode="&#x201c;" horiz-adv-x="444" 
d="M148 658v0l15 -16q-44 -45 -60 -69q-26 -38 -23 -69q19 22 55 22q25 0 40 -18t15 -40q0 -36 -20 -55.5t-49 -19.5q-35 0 -55 26t-20 63q0 89 102 176zM352 658v0l15 -16q-44 -45 -60 -69q-26 -38 -23 -69q19 22 55 22q25 0 40 -18t15 -40q0 -36 -20 -55.5t-49 -19.5
q-35 0 -55 26t-20 63q0 89 102 176z" />
    <glyph glyph-name="quotedblright" unicode="&#x201d;" horiz-adv-x="444" 
d="M92 393v0l-15 16q44 45 60 69q26 38 23 69q-19 -22 -55 -22q-25 0 -40 18t-15 40q0 36 20 55.5t49 19.5q35 0 55 -26t20 -63q0 -89 -102 -176zM296 393v0l-15 16q44 45 60 69q26 38 23 69q-19 -22 -55 -22q-25 0 -40 18t-15 40q0 36 20 55.5t49 19.5q35 0 55 -26t20 -63
q0 -89 -102 -176z" />
    <glyph glyph-name="quotedblbase" unicode="&#x201e;" horiz-adv-x="444" 
d="M92 -140v0l-15 16q42 44 55 62q27 39 29 76q-23 -22 -56 -22q-24 0 -39.5 17t-15.5 41q0 32 19 53.5t50 21.5q34 0 56 -28q19 -26 19 -61q0 -91 -102 -176zM296 -140v0l-15 16q42 44 55 62q27 39 29 76q-23 -22 -56 -22q-24 0 -39.5 17t-15.5 41q0 32 19 53.5t50 21.5
q34 0 56 -28q19 -26 19 -61q0 -91 -102 -176z" />
    <glyph glyph-name="dagger" unicode="&#x2020;" horiz-adv-x="444" 
d="M234 -167h-23q0 184 -10 271q-8 65 -31 132q29 41 36 75q6 28 6 109q-48 0 -83 -17t-58 -17q-16 0 -28.5 12.5t-12.5 30.5q0 19 12.5 31.5t28.5 12.5q23 0 58 -17t83 -17q0 68 -18 112t-18 57q0 50 47 50q21 0 33.5 -14.5t12.5 -35.5q0 -13 -18 -57t-18 -112q49 0 84 17
t57 17q16 0 28.5 -12.5t12.5 -31.5q0 -18 -12.5 -30.5t-28.5 -12.5q-22 0 -57 17t-84 17q0 -81 6 -109q7 -34 36 -75q-23 -67 -31 -132q-10 -87 -10 -271z" />
    <glyph glyph-name="daggerdbl" unicode="&#x2021;" horiz-adv-x="444" 
d="M223 658q21 0 33.5 -14.5t12.5 -35.5q0 -13 -18 -57t-18 -112q49 0 84 17t57 17q16 0 28.5 -12.5t12.5 -31.5q0 -18 -12.5 -30.5t-28.5 -12.5q-22 0 -57 17t-84 17q-4 -122 40 -177q-44 -58 -40 -179q49 0 84 17t57 17q16 0 28.5 -12.5t12.5 -30.5q0 -19 -12.5 -31.5
t-28.5 -12.5q-22 0 -57 17t-84 17q0 -68 18 -112t18 -57q0 -21 -12.5 -35.5t-33.5 -14.5q-47 0 -47 50q0 13 18 57t18 112q-48 0 -83 -17t-58 -17q-16 0 -28.5 12.5t-12.5 31.5q0 18 12.5 30.5t28.5 12.5q23 0 58 -17t83 -17q-1 62 -6 93q-9 52 -35 86q39 49 41 177
q-48 0 -83 -17t-58 -17q-16 0 -28.5 12.5t-12.5 30.5q0 19 12.5 31.5t28.5 12.5q23 0 58 -17t83 -17q0 68 -18 112t-18 57q0 50 47 50z" />
    <glyph glyph-name="bullet" unicode="&#x2022;" horiz-adv-x="500" 
d="M412 324q0 -67 -47 -114.5t-115 -47.5t-115 47t-47 115t47 115t115 47t115 -47t47 -115z" />
    <glyph glyph-name="ellipsis" unicode="&#x2026;" horiz-adv-x="1000" 
d="M235 57q0 -28 -20 -48t-48 -20t-48 20t-20 48t20 48t48 20t48 -20t20 -48zM568 57q0 -28 -20 -48t-48 -20t-48 20t-20 48t20 48t48 20t48 -20t20 -48zM901 57q0 -28 -20 -48t-48 -20t-48 20t-20 48t20 48t48 20t48 -20t20 -48z" />
    <glyph glyph-name="perthousand" unicode="&#x2030;" horiz-adv-x="1000" 
d="M460 627h42l-297 -638h-42l272 581l-2 2q-39 -28 -113 -28q3 -13 3 -30q0 -73 -50 -150q-55 -84 -120 -84q-107 0 -107 106q0 68 52 139q61 83 147 83q36 0 62 -34q6 -6 33 -6q33 0 66 16q37 16 54 43zM167 307q50 0 94 74q41 69 41 132q0 18 -4 31q-26 8 -59 36
q-39 -25 -73.5 -100.5t-34.5 -124.5q0 -48 36 -48zM344 102q0 77 57 152q61 79 136 79q82 0 82 -104q0 -75 -49 -149q-54 -80 -120 -80q-46 0 -76 28t-30 74zM429 83q0 -55 39 -55q26 0 55 29q24 23 39 51q35 66 35 126q0 71 -43 71q-40 0 -85 -92q-40 -83 -40 -130z
M654 102q0 77 57 152q61 79 136 79q82 0 82 -104q0 -75 -49 -149q-54 -80 -120 -80q-46 0 -76 28t-30 74zM739 83q0 -55 39 -55q26 0 55 29q24 23 39 51q35 66 35 126q0 71 -43 71q-40 0 -85 -92q-40 -83 -40 -130z" />
    <glyph glyph-name="guilsinglleft" unicode="&#x2039;" horiz-adv-x="278" 
d="M179 239v0l-36 -49q99 -129 99 -145q0 -11 -10 -11q-1 0 -22 19t-127 107q-27 22 -27 28t11 15q113 94 152 133q7 7 13 7q10 0 10 -9q0 -2 -63 -95z" />
    <glyph glyph-name="guilsinglright" unicode="&#x203a;" horiz-adv-x="278" 
d="M99 138v0l36 49q-99 129 -99 145q0 11 10 11q1 0 22 -19t127 -107q27 -22 27 -28t-11 -15q-113 -94 -152 -133q-7 -7 -13 -7q-10 0 -10 9q0 2 63 95z" />
    <glyph glyph-name="fraction" unicode="&#x2044;" horiz-adv-x="167" 
d="M273 624l-328 -633h-51l328 633h51z" />
    <glyph glyph-name="franc" unicode="&#x20a3;" horiz-adv-x="1035" 
d="M23 24h49v599h-49v25h406l6 -185h-23q-24 88 -47 116q-36 45 -119 45h-40v-273q53 -1 74 29q17 25 19 85h25v-269h-22q-9 72 -24 96q-20 32 -72 33v-301h58v-24h-241v24zM867 0h-199v21h42v333h-40v21q36 0 62 1q42 2 77 6v-57h2q31 59 85 59q29 0 50.5 -17.5t21.5 -43.5
q0 -23 -12 -38q-14 -18 -37 -18q-48 0 -48 40q0 12 4.5 24.5t4.5 15.5q0 8 -10 8q-16 0 -34 -29q-20 -32 -20 -74v-231h51v-21z" />
    <glyph glyph-name="u20AB" unicode="&#x20ab;" horiz-adv-x="393" 
d="M197 501q-48 0 -84 -88q-20 -49 -20 -90q0 -51 39 -51q41 0 74 71q28 60 28 107q0 51 -37 51zM200 267q-53 -62 -106 -62q-45 0 -68 28t-23 74q0 80 55 153q59 78 136 78q34 0 61 -24l20 75h-100l10 36h100l2 16q0 31 -48 32l7 33q67 2 128 14l15 3q6 0 6 -9l-3 -12
l-19 -77h65l-10 -36h-65l-69 -280q-5 -20 -5 -27q0 -15 12 -15q6 0 49 42l20 -18q-70 -86 -117 -86q-43 0 -53 62zM9 160h221v-56h-221v56z" />
    <glyph glyph-name="trademark" unicode="&#x2122;" horiz-adv-x="1000" 
d="M251 624v-310q0 -29 7 -36t44 -10v-24h-202v24q37 3 44 10t7 36v310h-45q-50 0 -65 -64h-24v88h368v-88h-24q-15 64 -65 64h-45zM665 244l-137 287h-2v-193q0 -40 7 -52q9 -16 45 -18v-24h-134v24q35 2 44 19q7 11 7 51v234q-23 52 -70 52v24h145l138 -283l148 283h123
v-24q-34 -1 -43.5 -11t-9.5 -35v-264q0 -29 7 -36t44 -10v-24h-201v24q37 3 43.5 10t6.5 36v218h-2l-145 -288h-14z" />
    <glyph glyph-name="minus" unicode="&#x2212;" horiz-adv-x="600" 
d="M552 205h-504v96h504v-96z" />
    <glyph glyph-name="SF370000" unicode="&#x255f;" horiz-adv-x="718" 
d="M258 221l-56 208h-2l-57 -208h115zM444 24h37v-24h-217v24h47l-46 170h-130l-45 -170h60v-24h-136v24h47l174 624h39z" />
    <glyph glyph-name="SF420000" unicode="&#x2560;" horiz-adv-x="681" 
d="M427 211l-9 -211h-406v24h44v600h-44v24h394l6 -165h-23q-24 84 -58 114q-32 27 -96 27h-45v-273q53 0 74 30q17 25 19 85h25v-269h-22q-9 72 -24 96q-20 32 -72 32v-301h47q87 0 126 59q28 41 38 128h26z" />
    <glyph glyph-name="SF190000" unicode="&#x2561;" horiz-adv-x="429" 
d="M206 24h52v-24h-238v24h52v600h-52v24h238v-24h-52v-600z" />
    <glyph glyph-name="SF200000" unicode="&#x2562;" horiz-adv-x="773" 
d="M371 165v289q0 111 -25 150q-19 30 -68 30t-68 -30q-25 -39 -25 -150v-289q0 -154 93 -154t93 154zM278 658q103 0 174 -94q73 -97 73 -242q0 -144 -72 -239.5t-175 -95.5t-175 95.5t-72 239.5q0 145 73 242q71 94 174 94z" />
    <glyph glyph-name="SF230000" unicode="&#x2563;" horiz-adv-x="811" 
d="M250 624h-48v-493q0 -112 91 -112q115 0 115 152v453h-49v24h128v-24h-49v-445q0 -82 -25 -124q-40 -68 -151 -68q-103 0 -153 53q-41 42 -41 110v474h-46v24h228v-24z" />
    <glyph glyph-name="SF470000" unicode="&#x2564;" horiz-adv-x="699" 
d="M318 24h59v-24h-250v24h57v266l-135 334h-35v24h211v-24h-42l113 -276l113 276h-46v24h116v-24h-38l-123 -303v-297z" />
    <glyph glyph-name="SF480000" unicode="&#x2565;" horiz-adv-x="541" 
d="M358 46l10 -13q-25 -42 -81 -42q-48 0 -64 50q-42 -50 -116 -50q-41 0 -66 22t-25 60q0 73 69 106q41 20 133 32v78q0 38 -6 51q-10 22 -43 22q-45 0 -45 -20q0 -2 10.5 -18.5t10.5 -31.5q0 -20 -15 -34t-30 -14q-54 0 -54 51q0 32 26 56q37 33 112 33q62 0 98 -23.5
t36 -66.5v-236q0 -24 14 -24q7 0 26 12zM119 109q0 -74 44 -74q36 0 46.5 29t8.5 126q-99 -2 -99 -81z" />
    <glyph glyph-name="SF410000" unicode="&#x2566;" horiz-adv-x="431" 
d="M354 217h-213v-92q0 -107 72 -107q102 0 121 100h24q-12 -59 -52 -93t-99 -34q-84 0 -134 58q-48 55 -48 140q0 78 48.5 136.5t125.5 58.5q68 0 111.5 -49.5t43.5 -117.5zM141 241h104v56q0 42 -17 57q-10 9 -35 9q-52 0 -52 -69v-53z" />
    <glyph glyph-name="SF450000" unicode="&#x2567;" horiz-adv-x="314" 
d="M11 21h44v333h-41v21q91 0 147 7v-361h39v-21h-189v21zM165 560q0 -25 -17.5 -42t-41.5 -17q-25 0 -42 17t-17 42t17 42t42 17q24 0 41.5 -17t17.5 -42z" />
    <glyph glyph-name="SF460000" unicode="&#x2568;" horiz-adv-x="314" 
d="M11 21h44v333h-41v21q91 0 147 7v-361h39v-21h-189v21z" />
    <glyph glyph-name="SF400000" unicode="&#x2569;" horiz-adv-x="498" 
d="M194 -9q-83 0 -130 61q-43 55 -43 135q0 81 43 136q47 61 130 61t130 -61q43 -55 43 -136q0 -80 -43 -135q-47 -61 -130 -61zM136 282v-180q0 -49 13 -70.5t45 -21.5q38 0 51 29q7 17 7 62v181q0 83 -58 83t-58 -83z" />
    <glyph glyph-name="SF540000" unicode="&#x256a;" horiz-adv-x="557" 
d="M272 -4l-9 49q-51 -54 -109 -54q-103 0 -103 108v255h-41v21q91 0 147 7v-303q0 -46 43 -46q26 0 45 24q26 33 26 104v193h-49v21q52 0 78 1q42 2 77 6v-359h42v-21q-57 0 -147 -6z" />
    <glyph glyph-name="SF530000" unicode="&#x256b;" horiz-adv-x="497" 
d="M183 354h-37l89 -219l76 219h-38v21h95v-21h-29l-154 -429q-31 -87 -57.5 -119.5t-63.5 -32.5q-23 0 -38.5 16.5t-15.5 40.5q0 47 49 47q17 0 31.5 -15t21.5 -15q26 0 70 148l-139 359h-27v21h167v-21z" />
    <glyph glyph-name="circle" unicode="&#x25cb;" horiz-adv-x="718" 
d="M242 671h-42l104 169h70l105 -169h-43l-97 108zM298 859h-46l122 138q34 38 52 38q35 0 35 -36q0 -23 -32 -46z" />
    <glyph glyph-name="H18533" unicode="&#x25cf;" horiz-adv-x="718" 
d="M242 671h-42l104 169h70l105 -169h-43l-97 108zM483 860h-46l-131 94q-32 23 -32 46q0 36 35 36q18 0 52 -38z" />
    <glyph glyph-name="invbullet" unicode="&#x25d8;" horiz-adv-x="718" 
d="M242 671h-42l104 169h70l105 -169h-43l-97 108zM614 903q9 29 11 64q1 11 8 13q3 0 8 1q67 11 67 54q0 35 -28 35q-5 0 -14 -1t-14 -1q-21 0 -21 18q0 28 32 28q46 0 76 -25.5t26 -70.5q-6 -59 -87 -81q-25 -7 -31 -34h-33z" />
    <glyph glyph-name="invcircle" unicode="&#x25d9;" horiz-adv-x="718" 
d="M242 671h-42l104 169h70l105 -169h-43l-97 108zM505 996v0h29q-25 -110 -96 -110q-27 0 -68.5 23.5t-55.5 23.5q-36 0 -46 -50h-29q20 108 96 108q22 0 64 -24t60 -24q28 0 46 53z" />
    <glyph glyph-name="fi" unicode="&#xf001;" horiz-adv-x="444" 
d="M201 21v-21h-201v21h56v333h-56v21h56q0 168 64 235q46 48 121 48q49 0 82 -21q40 -25 40 -70q0 -54 -59 -54q-19 0 -31.5 14.5t-12.5 34.5q0 10 5.5 25.5t5.5 21.5q0 28 -37 28t-54 -36q-18 -41 -18 -143v-83h63q76 0 162 7v-361h39v-21h-181v21h36v333h-119v-333h39z
" />
    <glyph glyph-name="fl" unicode="&#xf002;" horiz-adv-x="444" 
d="M199 21v-21h-199v21h56v333h-56v21h56q2 123 28 183q44 100 151 100q16 0 39 -5.5t43 -5.5q36 0 70 10v-636h37v-21h-181v21h38v333h-119v-333h37zM162 375h119v147q-28 7 -28 38q0 12 7 30.5t7 26.5q0 21 -36 21q-69 0 -69 -144v-119z" />
    <glyph glyph-name="periodcentered" horiz-adv-x="195" 
d="M166 253q0 -28 -20 -48t-48 -20t-48 20t-20 48t20 48t48 20t48 -20t20 -48z" />
    <glyph glyph-name="glyph231" horiz-adv-x="278" 
 />
    <glyph glyph-name="glyph232" horiz-adv-x="278" 
 />
    <glyph glyph-name="glyph275" horiz-adv-x="249" 
 />
    <glyph glyph-name="glyph276" horiz-adv-x="249" 
 />
    <glyph glyph-name="glyph261" horiz-adv-x="500" 
d="M253 522q9 29 11 64q1 11 8 13q3 0 8 1q67 11 67 54q0 35 -28 35q-5 0 -14 -1t-14 -1q-21 0 -21 18q0 28 32 28q46 0 76 -25.5t26 -70.5q-6 -59 -87 -81q-25 -7 -31 -34h-33z" />
    <glyph glyph-name="glyph262" horiz-adv-x="541" 
d="M39 439h-42l104 169h70l105 -169h-43l-97 108zM94 628h-46l122 138q34 38 52 38q35 0 35 -36q0 -23 -32 -46z" />
    <glyph glyph-name="glyph263" horiz-adv-x="541" 
d="M39 439h-42l104 169h70l105 -169h-43l-97 108zM280 628h-46l-131 94q-32 23 -32 46q0 36 35 36q18 0 52 -38z" />
    <glyph glyph-name="glyph264" horiz-adv-x="541" 
d="M39 439h-42l104 169h70l105 -169h-43l-97 108zM411 671q9 29 11 64q1 11 8 13q3 0 8 1q67 11 67 54q0 35 -28 35q-5 0 -14 -1t-14 -1q-21 0 -21 18q0 28 32 28q46 0 76 -25.5t26 -70.5q-6 -59 -87 -81q-25 -7 -31 -34h-33z" />
    <glyph glyph-name="glyph265" horiz-adv-x="541" 
d="M39 439h-42l104 169h70l105 -169h-43l-97 108zM302 764v0h29q-25 -110 -96 -110q-27 0 -68.5 23.5t-55.5 23.5q-36 0 -46 -50h-29q20 108 96 108q22 0 64 -24t60 -24q28 0 46 53z" />
    <glyph glyph-name="glyph266" horiz-adv-x="541" 
d="M14 586h30q12 -87 96 -87q46 0 69 27q17 19 26 60h32q-13 -148 -130 -148q-58 0 -90 42q-30 39 -33 106zM173 628h-46l122 138q34 38 52 38q35 0 35 -36q0 -23 -32 -46z" />
    <glyph glyph-name="glyph267" horiz-adv-x="541" 
d="M14 586h30q12 -87 96 -87q46 0 69 27q17 19 26 60h32q-13 -148 -130 -148q-58 0 -90 42q-30 39 -33 106zM227 628h-46l-131 94q-32 23 -32 46q0 36 35 36q18 0 52 -38z" />
    <glyph glyph-name="glyph268" horiz-adv-x="541" 
d="M14 586h30q12 -87 96 -87q46 0 69 27q17 19 26 60h32q-13 -148 -130 -148q-58 0 -90 42q-30 39 -33 106zM306 671q9 29 11 64q1 11 8 13q3 0 8 1q67 11 67 54q0 35 -28 35q-5 0 -14 -1t-14 -1q-21 0 -21 18q0 28 32 28q46 0 76 -25.5t26 -70.5q-6 -59 -87 -81
q-25 -7 -31 -34h-33z" />
    <glyph glyph-name="glyph269" horiz-adv-x="541" 
d="M14 586h30q12 -87 96 -87q46 0 69 27q17 19 26 60h32q-13 -148 -130 -148q-58 0 -90 42q-30 39 -33 106zM302 764v0h29q-25 -110 -96 -110q-27 0 -68.5 23.5t-55.5 23.5q-36 0 -46 -50h-29q20 108 96 108q22 0 64 -24t60 -24q28 0 46 53z" />
    <glyph glyph-name="glyph270" horiz-adv-x="249" 
 />
  </font>
</defs>
</svg>
